<?xml version="1.0" encoding="UTF-8"?><svg id="aq" xmlns="http://www.w3.org/2000/svg" viewBox="0 0 100 100"><g id="ar"><path id="as" d="M87.5,37.5h12.5l-12.5-12.5v-12.5h-12.5L62.5,0v12.5L50,0h0s0,0,0,0l-12.5,12.5V0l-12.5,12.5h-12.5v12.5L0,37.5h12.5L0,50l12.5,12.5H0l12.5,12.5v12.5h12.5l12.5,12.5v-12.5l12.5,12.5h0s0,0,0,0l12.5-12.5v12.5l12.5-12.5h12.5v-12.5l12.5-12.5h-12.5l12.5-12.5-12.5-12.5Z" fill="#c5c5c5"/></g><g id="at"><path id="au" d="M77,41h9l-9-9v-9h-9l-9-9v9l-9-9-9,9v-9l-9,9h-9v9l-9,9h9l-9,9,9,9h-9l9,9v9h9l9,9v-9l9,9,9-9v9l9-9h9v-9l9-9h-9l9-9-9-9ZM73,50l-5.75,5.75h5.75l-5.75,5.75v5.75h-5.75l-5.75,5.75v-5.75l-5.75,5.75-5.75-5.75v5.75l-5.75-5.75h-5.75v-5.75l-5.75-5.75h5.75l-5.75-5.75,5.75-5.75h-5.75l5.75-5.75v-5.75h5.75l5.75-5.75v5.75l5.75-5.75,5.75,5.75v-5.75l5.75,5.75h5.75v5.75l5.75,5.75h-5.75l5.75,5.75Z" fill="#999"/></g></svg>