<?xml version="1.0" encoding="UTF-8"?><svg id="az" xmlns="http://www.w3.org/2000/svg" viewBox="0 0 100 100"><g id="ba"><path d="M25,12.5C25,5.6,19.4,0,12.5,0v12.5h12.5ZM12.5,37.5h0v-12.5C12.5,18.1,6.9,12.5,0,12.5h0v12.5c0,6.9,5.6,12.5,12.5,12.5ZM37.5,25v-12.5h0c-6.9,0-12.5,5.6-12.5,12.5v12.5h0c6.9,0,12.5-5.6,12.5-12.5ZM87.5,0c-6.9,0-12.5,5.6-12.5,12.5h12.5V0ZM75,37.5h0v-12.5c0-6.9-5.6-12.5-12.5-12.5h0v12.5c0,6.9,5.6,12.5,12.5,12.5ZM100,25v-12.5h0c-6.9,0-12.5,5.6-12.5,12.5v12.5h0c6.9,0,12.5-5.6,12.5-12.5ZM75,87.5c0,6.9,5.6,12.5,12.5,12.5v-12.5h-12.5ZM87.5,62.5h0v12.5c0,6.9,5.6,12.5,12.5,12.5h0v-12.5c0-6.9-5.6-12.5-12.5-12.5ZM62.5,75v12.5h0c6.9,0,12.5-5.6,12.5-12.5v-12.5h0c-6.9,0-12.5,5.6-12.5,12.5ZM12.5,100c6.9,0,12.5-5.6,12.5-12.5h-12.5v12.5ZM25,62.5h0v12.5c0,6.9,5.6,12.5,12.5,12.5h0v-12.5c0-6.9-5.6-12.5-12.5-12.5ZM0,75v12.5h0c6.9,0,12.5-5.6,12.5-12.5v-12.5h0c-6.9,0-12.5,5.6-12.5,12.5Z" fill="#999"/></g><g id="bb"><path d="M25,50c-6.9,0-12.5-5.6-12.5-12.5h25c0,6.9-5.6,12.5-12.5,12.5ZM50,37.5h-12.5c0,6.9,5.6,12.5,12.5,12.5v-12.5ZM0,50c6.9,0,12.5-5.6,12.5-12.5H0v12.5ZM50,0c-6.9,0-12.5,5.6-12.5,12.5h12.5V0ZM12.5,12.5C12.5,5.6,6.9,0,0,0v12.5h12.5ZM37.5,0c-6.9,0-12.5,5.6-12.5,12.5h12.5V0ZM25,37.5h0v-12.5c0-6.9-5.6-12.5-12.5-12.5h0v12.5c0,6.9,5.6,12.5,12.5,12.5ZM50,25v-12.5h0c-6.9,0-12.5,5.6-12.5,12.5v12.5h0c6.9,0,12.5-5.6,12.5-12.5ZM87.5,37.5h-25c0,6.9,5.6,12.5,12.5,12.5s12.5-5.6,12.5-12.5ZM100,37.5h-12.5c0,6.9,5.6,12.5,12.5,12.5v-12.5ZM50,50c6.9,0,12.5-5.6,12.5-12.5h-12.5v12.5ZM100,0c-6.9,0-12.5,5.6-12.5,12.5h12.5V0ZM75,12.5c0-6.9-5.6-12.5-12.5-12.5v12.5h12.5ZM62.5,12.5c0-6.9-5.6-12.5-12.5-12.5v12.5h12.5ZM62.5,37.5h0v-12.5c0-6.9-5.6-12.5-12.5-12.5h0v12.5c0,6.9,5.6,12.5,12.5,12.5ZM87.5,25v-12.5h0c-6.9,0-12.5,5.6-12.5,12.5v12.5h0c6.9,0,12.5-5.6,12.5-12.5ZM62.5,62.5h25c0-6.9-5.6-12.5-12.5-12.5s-12.5,5.6-12.5,12.5ZM50,62.5h12.5c0-6.9-5.6-12.5-12.5-12.5v12.5ZM100,50c-6.9,0-12.5,5.6-12.5,12.5h12.5v-12.5ZM50,100c6.9,0,12.5-5.6,12.5-12.5h-12.5v12.5ZM87.5,87.5c0,6.9,5.6,12.5,12.5,12.5v-12.5h-12.5ZM62.5,100c6.9,0,12.5-5.6,12.5-12.5h-12.5v12.5ZM75,62.5h0v12.5c0,6.9,5.6,12.5,12.5,12.5h0v-12.5c0-6.9-5.6-12.5-12.5-12.5ZM50,75v12.5h0c6.9,0,12.5-5.6,12.5-12.5v-12.5h0c-6.9,0-12.5,5.6-12.5,12.5ZM12.5,62.5h25c0-6.9-5.6-12.5-12.5-12.5s-12.5,5.6-12.5,12.5ZM0,62.5h12.5c0-6.9-5.6-12.5-12.5-12.5v12.5ZM50,50c-6.9,0-12.5,5.6-12.5,12.5h12.5v-12.5ZM0,100c6.9,0,12.5-5.6,12.5-12.5H0v12.5ZM25,87.5c0,6.9,5.6,12.5,12.5,12.5v-12.5h-12.5ZM37.5,87.5c0,6.9,5.6,12.5,12.5,12.5v-12.5h-12.5ZM37.5,62.5h0v12.5c0,6.9,5.6,12.5,12.5,12.5h0v-12.5c0-6.9-5.6-12.5-12.5-12.5ZM12.5,75v12.5h0c6.9,0,12.5-5.6,12.5-12.5v-12.5h0c-6.9,0-12.5,5.6-12.5,12.5Z" fill="#c5c5c5"/></g></svg>