<?xml version="1.0" encoding="UTF-8"?><svg id="y" xmlns="http://www.w3.org/2000/svg" viewBox="0 0 100 100"><g id="z"><path d="M11.77,88.23l3.92,3.92v7.85H0v-15.69h7.85l3.92,3.92ZM15.69,7.85V0H0v15.69h7.85l7.84-7.84ZM84.31,0v7.85l7.84,7.84h7.85V0h-15.69ZM100,25.03v.1h-.07l-12.46,12.52,12.46,12.46-12.45,12.44,12.42,12.42h-12.42l-.05.05.05.05h-.1l-6.24,6.25-6.17,6.16v12.52h-.1v-.07l-12.52-12.46-12.46,12.46-12.44-12.45-12.42,12.42v-12.42l-6.17-6.16-6.24-6.25h-.1l.05-.05-.05-.05H0v-.1h.07l12.46-12.52L.07,49.89l12.45-12.44L.1,25.03h12.42l6.25-6.26,6.26-6.25V0h.1v.07l12.52,12.46L50.11.07l12.44,12.45L74.97.1v12.42l6.35,6.34,6.16,6.17h12.52ZM74.31,50.1l6.59-6.2h-12.38v-12.27l.06-.05h-.06v-.06l-.06.06h-12.27v-12.39l-6.19,6.59-6.19-6.59v12.39h-12.27l-.06-.06v.06h-.06l.06.06v12.27h-12.39l6.59,6.19-6.59,6.19h12.39v12.28l-.06.05h.06v.06l.06-.06h12.27v12.39l6.19-6.59,6.19,6.59v-12.39h12.27l.05.06v-.06h.07l-.07-.07v-12.26h12.39l-6.59-6.19ZM68.52,56.29v12.26s.06.07.06.07h-.07v.06l-.05-.06h-12.26v12.39s-6.2-6.59-6.2-6.59l-6.19,6.59v-12.38h-12.27s-.06.05-.06.05v-.06h-.06l.06-.05v-12.27h-12.39s6.59-6.2,6.59-6.2l-6.59-6.19h12.39v-12.27l-.06-.06h.06v-.06l.06.06h12.26v-12.39s6.2,6.59,6.2,6.59l6.19-6.59v12.39h12.27l.06-.06v.06h.06l-.06.05v12.27h12.38l-6.59,6.2,6.59,6.19h-12.38ZM62.39,50.1l.07-.06h-.14l-12.27-12.28v-.11l-.06.05-.06-.05v.11l-12.27,12.28h-.12l.06.06-.06.06h.13l12.27,12.28v.11l.06-.05.06.05v-.11l12.27-12.28h.12l-.06-.06ZM88.23,88.23l-3.92,3.92v7.85h15.69v-15.69h-7.85l-3.92,3.92Z" fill="#999"/></g><g id="aa"><path d="M74.97,62.55l12.39-12.39h.11l-.05-.05.06-.07h-.13l-12.39-12.39,12.51-12.52-12.91.41.4-12.92-12.51,12.51-12.4-12.4v-.11l-.06.06-.06-.06v.11l-12.39,12.4-12.52-12.51.41,12.92-12.92-.41,12.51,12.52-12.38,12.39h-.12l.06.06-.07.06h.13l12.39,12.39-12.46,12.47-.05.05h.1l12.81-.4-.4,12.81v.11l12.51-12.52,12.4,12.4v.12l.06-.06.06.06v-.12l12.4-12.4,12.51,12.52v-.11l-.4-12.81,12.81.4h.1l-.05-.05-12.46-12.47ZM68.58,68.62h-.07v.06l-.05-.06h-12.26v12.39s-6.2-6.59-6.2-6.59l-6.19,6.59v-12.38h-12.27s-.06.05-.06.05v-.06h-.06l.06-.05v-12.27h-12.39s6.59-6.2,6.59-6.2l-6.59-6.19h12.39v-12.27l-.06-.06h.06v-.06l.06.06h12.26v-12.39s6.2,6.59,6.2,6.59l6.19-6.59v12.39h12.27l.06-.06v.06h.06l-.06.05v12.27h12.38l-6.59,6.2,6.59,6.19h-12.38v12.26s.06.07.06.07Z" fill="#c5c5c5"/></g></svg>