<?xml version="1.0" encoding="UTF-8"?><svg id="at" xmlns="http://www.w3.org/2000/svg" viewBox="0 0 100 100"><g id="au"><path d="M88.8,30.38V11.16h-21.2c-2.95,3.22-6.76,5.65-11.07,6.88-2.09.6-4.28.92-6.56.92s-4.47-.32-6.55-.92h-.01c-4.31-1.23-8.11-3.66-11.07-6.88H11.15v19.22c3.86,3.13,6.72,7.44,8.04,12.39l7.25,7.26-7.49,7.49-.38-.38c-1.49,4.12-4.09,7.7-7.42,10.41v21.35h19.46c3.18-4.39,7.79-7.67,13.16-9.11,1.98-.53,4.06-.82,6.2-.82s4.23.29,6.2.82c5.37,1.44,9.99,4.72,13.16,9.11h19.47v-21.35c-3.35-2.72-5.95-6.32-7.44-10.45l-.42.42-7.46-7.46.02-.03-.03-.03,7.3-7.3c1.33-4.92,4.19-9.2,8.03-12.32ZM55.52,47.73v4.6l-3.25,3.25h-4.6l-3.24-3.25v-4.6l3.25-3.25h4.59l3.25,3.25ZM22.24,33.37v-11.11h-6.71v-6.71h6.71v6.71h11.09v11.11h9.75l-.95.95-7.85,7.86-.95.95v-9.76h-11.09ZM33.33,66.68v11.11h-11.09v6.72h-6.71v-6.72h6.71v-11.11h11.09v-9.75l9.75,9.75h-9.75ZM77.71,66.68v11.11h6.7v6.72h-6.7v-6.72h-11.1v-11.11h-9.74l.94-.95,8.8-8.8v9.75h11.1ZM77.71,33.37h-11.1v9.76l-.95-.95-7.85-7.86-.94-.95h9.74v-11.11h11.1v-6.71h6.7v6.71h-6.7v11.11ZM33.28,94.45l-5.49,5.5-5.49-5.5,5.49-5.5,5.49,5.5ZM77.7,94.45l-5.49,5.5-5.49-5.5,5.49-5.5,5.49,5.5ZM55.46,94.45l-5.49,5.5-5.49-5.5,5.49-5.5,5.49,5.5ZM33.28,5.5l-5.49,5.5-5.49-5.5L27.79,0l5.49,5.5ZM77.7,5.5l-5.49,5.5-5.49-5.5,5.49-5.5,5.49,5.5ZM100,27.9l-5.49,5.5-5.49-5.5,5.49-5.5,5.49,5.5ZM100,72.38l-5.49,5.5-5.49-5.5,5.49-5.5,5.49,5.5ZM11.15,27.9l-5.49,5.5L.17,27.9l5.49-5.5,5.49,5.5ZM11.15,72.38l-5.49,5.5L.17,72.38l5.49-5.5,5.49,5.5ZM44.43,44.48v11.1h-11.1v-11.1h11.1ZM55.52,55.58v11.11h-11.09v-11.11h11.09ZM66.61,44.48v11.1h-11.09v-11.1h11.09ZM66.61,43.13v1.35h-11.09v-11.1h1.35l9.74,9.75ZM44.43,55.58v11.1h-1.35l-9.74-9.75v-1.35h11.09ZM66.61,55.58v1.35l-9.74,9.75h-1.35v-11.1h11.09ZM55.52,33.37v11.11h-11.09v-11.11h11.09ZM44.43,33.37v11.1h-11.09v-1.35l9.74-9.75h1.35ZM47.68,44.48l-3.25,3.25v-3.25h3.25ZM47.67,55.58h-3.24v-3.25l3.24,3.25ZM55.52,44.48v3.25l-3.25-3.25h3.25ZM55.52,52.33v3.25h-3.25l3.25-3.25ZM49.97,42.18l-2.29,2.3-5.55,5.55-7.85-7.85,7.85-7.86,2.3,2.3,5.54,5.56ZM49.97,57.88l-5.54,5.56-2.3,2.29-7.85-7.85,2.3-2.3,5.55-5.55,2.3,2.3,3.24,3.25h.01l2.29,2.3ZM65.66,57.88l-7.85,7.85-2.29-2.29-5.55-5.56,5.55-5.55,2.29-2.3,5.55,5.55,2.3,2.3ZM73.5,50.03l-.02.03-7.82,7.82-2.3-2.3-5.55-5.55h.01l5.54-5.55,2.3-2.3.95.95,6.86,6.87.03.03ZM42.13,50.03l-5.55,5.55-2.3,2.3-7.84-7.85,7.84-7.85,2.3,2.3,5.55,5.55ZM57.81,65.73l-7.84,7.85-7.84-7.85,2.3-2.3,5.55-5.56,5.55,5.56,2.3,2.3ZM65.66,42.18l-2.3,2.3-5.54,5.55h-.01l-2.29-2.3-3.25-3.25-2.3-2.3,5.55-5.56,2.29-2.3,7.85,7.86ZM57.81,34.32l-2.3,2.3-5.55,5.56-5.55-5.56-2.3-2.3,7.84-7.85,7.84,7.85ZM44.43,47.73v4.6l-2.3-2.3,2.3-2.3ZM47.68,44.48l-3.25,3.25,3.24-3.25h.01ZM52.27,44.48h-4.59l2.29-2.3,2.3,2.3ZM52.27,55.58l-2.3,2.3-2.29-2.3h4.59ZM57.82,50.03h0s-2.3,2.3-2.3,2.3v-4.6l2.29,2.3h.01ZM11.15,88.9v11.1H.06v-11.1h11.09ZM99.89.06v11.1h-11.09V.06h11.09ZM88.8,88.9h11.09v11.1h-11.09v-11.1ZM55.46,5.5l-5.49,5.5-5.49-5.5,5.49-5.5,5.49,5.5ZM49.97,11.48l7.49,7.5-7.49,7.5-7.49-7.5,7.49-7.5ZM94.4,55.52l-5.49-5.5,5.49-5.5,5.49,5.5-5.49,5.5ZM73.47,50l.03.03-.02.03-.03-.03.02-.03ZM88.42,50.03l-7.06,7.07c-.92-2.54-1.42-5.27-1.42-8.13,0-2.17.29-4.27.83-6.27l.17-.17,7.48,7.5ZM5.49,44.53l5.49,5.5-5.49,5.5-5.49-5.5,5.49-5.5ZM20,48.97c0,2.87-.5,5.62-1.43,8.17l-7.1-7.11,7.48-7.5.24.24c.53,1.98.81,4.05.81,6.2ZM49.97,73.58l7.49,7.5-7.49,7.5-7.49-7.5,7.49-7.5ZM11.15,11.16H.06V.06h11.09v11.1Z" fill="#c5c5c5"/></g><g id="av"><path d="M49.97,73.58l-6.2,6.21c1.98-.53,4.06-.82,6.2-.82s4.23.29,6.2.82l-6.2-6.21ZM73.47,50l-6.86-6.87-.95-.95-7.85-7.86-.94-.95h-.01l-6.89-6.9-6.89,6.9-.95.95-7.85,7.86-.95.95-6.89,6.9,6.89,6.9,9.75,9.75,6.89,6.9,6.89-6.9h.01l.94-.95,15.67-15.67.02-.03-.03-.03ZM47.67,55.58l-3.24-3.25v-4.6l3.25-3.25h4.59l3.25,3.25v4.6l-3.25,3.25h-4.6ZM56.53,18.04c-2.09.6-4.28.92-6.56.92s-4.47-.32-6.55-.92h-.01l-.93.93,7.49,7.5,7.49-7.5-.93-.93ZM55.46,94.45l-5.49,5.5-5.49-5.5,5.49-5.5,5.49,5.5ZM44.43,44.48v11.1h-11.1v-11.1h11.1ZM55.52,55.58v11.11h-11.09v-11.11h11.09ZM66.61,44.48v11.1h-11.09v-11.1h11.09ZM66.61,43.13v1.35h-11.09v-11.11h1.35l.94.95,7.85,7.86.95.95ZM44.43,55.58v11.1h-1.35l-9.74-9.75v-1.35h11.09ZM66.61,55.58v1.35l-8.8,8.8-.94.95h-1.35v-11.1h11.09ZM55.52,33.37v11.11h-11.09v-11.11h11.09ZM44.43,33.37v11.1h-11.09v-1.35l9.74-9.75h1.35ZM47.68,44.48l-3.25,3.25v-3.25h3.25ZM47.67,55.58h-3.24v-3.25l3.24,3.25ZM55.52,44.48v3.25l-3.25-3.25h3.25ZM55.52,52.33v3.25h-3.25l3.25-3.25ZM49.97,42.18l-2.29,2.3-5.55,5.55-7.85-7.85,7.85-7.86,2.3,2.3,5.54,5.56ZM49.97,57.88l-5.54,5.56-2.3,2.29-7.85-7.85,2.3-2.3,5.55-5.55,2.3,2.3,3.24,3.25h.01l2.29,2.3ZM65.66,57.88l-7.85,7.85-2.29-2.29-5.55-5.56,5.55-5.55,2.29-2.3,5.55,5.55,2.3,2.3ZM73.5,50.03l-.02.03-7.82,7.82-2.3-2.3-5.55-5.55h.01l5.54-5.55,2.3-2.3.95.95,6.86,6.87.03.03ZM42.13,50.03l-5.55,5.55-2.3,2.3-.95-.95-6.89-6.9,6.89-6.9.95-.95,7.85,7.85ZM57.81,65.73l-.94.95h-.01l-6.89,6.9-6.89-6.9-.95-.95,2.3-2.29,5.54-5.56,5.55,5.56,2.29,2.29ZM65.66,42.18l-2.3,2.3-5.54,5.55h-.01l-2.29-2.3-3.25-3.25-2.3-2.3,5.55-5.56,2.29-2.3,7.85,7.86ZM57.81,34.32l-2.29,2.3-5.55,5.56-5.54-5.56-2.3-2.3.95-.95,6.89-6.9,6.89,6.9h.01l.94.95ZM44.43,47.73v4.6l-2.3-2.3,2.3-2.3ZM47.68,44.48l-3.25,3.25,3.24-3.25h.01ZM52.27,44.48h-4.59l2.29-2.3,2.3,2.3ZM52.27,55.58l-2.3,2.3-2.29-2.3h4.59ZM57.82,50.03h0s-2.3,2.3-2.3,2.3v-4.6l2.29,2.3h.01ZM11.15,88.9v11.1H.06v-11.1h11.09ZM99.89.06v11.1h-11.09V.06h11.09ZM88.8,88.9h11.09v11.1h-11.09v-11.1ZM55.46,5.5l-5.49,5.5-5.49-5.5,5.49-5.5,5.49,5.5ZM57.46,18.97l-7.49,7.5-7.49-7.5.93-.93h.01l6.55-6.56,6.56,6.56.93.93ZM94.4,55.52l-5.49-5.5,5.49-5.5,5.49,5.5-5.49,5.5ZM73.5,50.03l-.02.03-.03-.03.02-.03.03.03ZM81.36,57.1l-.42.42-7.46-7.46.02-.03-.03-.03,7.3-7.3c-.54,2-.83,4.1-.83,6.27,0,2.86.5,5.59,1.42,8.13ZM88.42,50.03l-7.06,7.07c-.92-2.54-1.42-5.27-1.42-8.13,0-2.17.29-4.27.83-6.27l.17-.17,7.48,7.5ZM5.49,44.53l5.49,5.5-5.49,5.5-5.49-5.5,5.49-5.5ZM26.44,50.03l-7.49,7.49-.38-.38c.93-2.55,1.43-5.3,1.43-8.17,0-2.15-.28-4.22-.81-6.2l7.25,7.26ZM20,48.97c0,2.87-.5,5.62-1.43,8.17l-7.1-7.11,7.48-7.5.24.24c.53,1.98.81,4.05.81,6.2ZM57.46,81.08l-7.49,7.5-7.49-7.5,1.29-1.29,6.2-6.21,6.2,6.21,1.29,1.29ZM11.15,11.16H.06V.06h11.09v11.1Z" fill="#999"/></g></svg>