<?xml version="1.0" encoding="UTF-8"?><svg id="an" xmlns="http://www.w3.org/2000/svg" viewBox="0 0 100 100"><g id="ao"><path d="M33.33,33.33c0,9.2-7.46,16.67-16.67,16.67C7.46,50,0,42.54,0,33.33h33.33ZM0,0c0,9.2,7.46,16.67,16.67,16.67S33.33,9.2,33.33,0H0ZM0,66.67c0,9.2,7.46,16.67,16.67,16.67s16.67-7.46,16.67-16.67H0ZM66.67,33.33c0,9.2,7.46,16.67,16.67,16.67,9.2,0,16.67-7.46,16.67-16.67h-33.33ZM66.67,0c0,9.2,7.46,16.67,16.67,16.67s16.67-7.46,16.67-16.67h-33.33ZM66.67,66.67c0,9.2,7.46,16.67,16.67,16.67s16.67-7.46,16.67-16.67h-33.33ZM66.67,66.67c0-9.2-7.46-16.67-16.67-16.67s-16.67,7.46-16.67,16.67h33.33ZM66.67,100c0-9.2-7.46-16.67-16.67-16.67-9.2,0-16.67,7.46-16.67,16.67h33.33ZM66.67,33.33c0-9.2-7.46-16.67-16.67-16.67-9.2,0-16.67,7.46-16.67,16.67h33.33Z" fill="#c5c5c5"/></g><g id="ap"><path d="M33.33,16.67c0,9.2-7.46,16.67-16.67,16.67C7.46,33.33,0,25.87,0,16.67h33.33ZM0,83.33c0,9.2,7.46,16.67,16.67,16.67,9.2,0,16.67-7.46,16.67-16.67H0ZM0,50c0,9.2,7.46,16.67,16.67,16.67,9.2,0,16.67-7.46,16.67-16.67H0ZM66.67,16.67c0,9.2,7.46,16.67,16.67,16.67,9.2,0,16.67-7.46,16.67-16.67h-33.33ZM66.67,83.33c0,9.2,7.46,16.67,16.67,16.67,9.2,0,16.67-7.46,16.67-16.67h-33.33ZM66.67,50c0,9.2,7.46,16.67,16.67,16.67,9.2,0,16.67-7.46,16.67-16.67h-33.33ZM66.67,83.33c0-9.2-7.46-16.67-16.67-16.67-9.2,0-16.67,7.46-16.67,16.67h33.33ZM66.67,16.67c0-9.2-7.46-16.67-16.67-16.67-9.2,0-16.67,7.46-16.67,16.67h33.33ZM66.67,50c0-9.2-7.46-16.67-16.67-16.67-9.2,0-16.67,7.46-16.67,16.67h33.33Z" fill="#999"/></g></svg>