<?xml version="1.0" encoding="UTF-8"?><svg id="ak" xmlns="http://www.w3.org/2000/svg" viewBox="0 0 100 100"><g id="al"><path d="M37.5,49.6h0s0,0,0,0c-6.9,0-12.5-5.53-12.5-12.35h0c6.9,0,12.5,5.53,12.5,12.35ZM50,37.25h0c-6.9,0-12.5,5.53-12.5,12.35h0c6.9,0,12.5-5.53,12.5-12.35ZM25,24.83h0c0,6.82,5.6,12.35,12.5,12.35h0c0-6.82-5.6-12.35-12.5-12.35ZM50,24.83h0c-6.9,0-12.5,5.53-12.5,12.35h0c6.9,0,12.5-5.53,12.5-12.35ZM0,12.42h0c0,6.82,5.6,12.35,12.5,12.35h0c0-6.82-5.6-12.35-12.5-12.35ZM25,12.42h0s0,0,0,0c-6.9,0-12.5,5.53-12.5,12.35h0c6.9,0,12.5-5.53,12.5-12.35ZM0,0h0c0,6.82,5.6,12.35,12.5,12.35h0C12.5,5.53,6.9,0,0,0ZM25,0h0c-6.9,0-12.5,5.53-12.5,12.35h0c6.9,0,12.5-5.53,12.5-12.35ZM75,37.25h0c0,6.82,5.6,12.35,12.5,12.35h0c0-6.82-5.6-12.35-12.5-12.35ZM100,37.25h0c-6.9,0-12.5,5.53-12.5,12.35h0c6.9,0,12.5-5.53,12.5-12.35ZM75,24.83h0c0,6.82,5.6,12.35,12.5,12.35h0c0-6.82-5.6-12.35-12.5-12.35ZM100,24.83h0c-6.9,0-12.5,5.53-12.5,12.35h0c6.9,0,12.5-5.53,12.5-12.35ZM50,12.42h0c0,6.82,5.6,12.35,12.5,12.35h0c0-6.82-5.6-12.35-12.5-12.35ZM75,12.42h0s0,0,0,0c-6.9,0-12.5,5.53-12.5,12.35h0c6.9,0,12.5-5.53,12.5-12.35ZM50,0h0c0,6.82,5.6,12.35,12.5,12.35h0c0-6.82-5.6-12.35-12.5-12.35ZM75,0h0c-6.9,0-12.5,5.53-12.5,12.35h0c6.9,0,12.5-5.53,12.5-12.35ZM75,62.75h0c0-6.82-5.6-12.35-12.5-12.35h0c0,6.82,5.6,12.35,12.5,12.35ZM50,62.75h0c6.9,0,12.5-5.53,12.5-12.35h0c-6.9,0-12.5,5.53-12.5,12.35ZM75,75.17h0c0-6.82-5.6-12.35-12.5-12.35h0c0,6.82,5.6,12.35,12.5,12.35ZM50,75.17h0c6.9,0,12.5-5.53,12.5-12.35h0c-6.9,0-12.5,5.53-12.5,12.35ZM100,87.58h0c0-6.82-5.6-12.35-12.5-12.35h0c0,6.82,5.6,12.35,12.5,12.35ZM75,87.58h0s0,0,0,0c6.9,0,12.5-5.53,12.5-12.35h0c-6.9,0-12.5,5.53-12.5,12.35ZM100,100h0c0-6.82-5.6-12.35-12.5-12.35h0c0,6.82,5.6,12.35,12.5,12.35ZM75,100h0c6.9,0,12.5-5.53,12.5-12.35h0c-6.9,0-12.5,5.53-12.5,12.35ZM25,62.75h0c0-6.82-5.6-12.35-12.5-12.35h0c0,6.82,5.6,12.35,12.5,12.35ZM0,62.75h0c6.9,0,12.5-5.53,12.5-12.35h0c-6.9,0-12.5,5.53-12.5,12.35ZM25,75.17h0c0-6.82-5.6-12.35-12.5-12.35h0c0,6.82,5.6,12.35,12.5,12.35ZM0,75.17h0c6.9,0,12.5-5.53,12.5-12.35h0c-6.9,0-12.5,5.53-12.5,12.35ZM50,87.58h0c0-6.82-5.6-12.35-12.5-12.35h0c0,6.82,5.6,12.35,12.5,12.35ZM25,87.58h0s0,0,0,0c6.9,0,12.5-5.53,12.5-12.35h0c-6.9,0-12.5,5.53-12.5,12.35ZM50,100h0c0-6.82-5.6-12.35-12.5-12.35h0c0,6.82,5.6,12.35,12.5,12.35ZM25,100h0c6.9,0,12.5-5.53,12.5-12.35h0c-6.9,0-12.5,5.53-12.5,12.35Z" fill="#c5c5c5"/></g><g id="am"><path d="M37.5.19h0c-6.87,0-12.5,5.56-12.5,12.35h0c0,6.79,5.62,12.35,12.5,12.35h0c6.87,0,12.5-5.56,12.5-12.35h0C50,5.75,44.38.19,37.5.19ZM37.5,15.32c-1.55,0-2.81-1.25-2.81-2.78s1.27-2.78,2.81-2.78,2.81,1.25,2.81,2.78-1.27,2.78-2.81,2.78ZM12.5,24.9h0c-6.87,0-12.5,5.56-12.5,12.35h0c0,6.79,5.62,12.35,12.5,12.35h0c6.87,0,12.5-5.56,12.5-12.35h0c0-6.79-5.62-12.35-12.5-12.35ZM12.5,40.03c-1.55,0-2.81-1.25-2.81-2.78s1.27-2.78,2.81-2.78,2.81,1.25,2.81,2.78-1.27,2.78-2.81,2.78ZM87.5.19h0c-6.87,0-12.5,5.56-12.5,12.35h0c0,6.79,5.62,12.35,12.5,12.35h0c6.87,0,12.5-5.56,12.5-12.35h0c0-6.79-5.62-12.35-12.5-12.35ZM87.5,15.32c-1.55,0-2.81-1.25-2.81-2.78s1.27-2.78,2.81-2.78,2.81,1.25,2.81,2.78-1.27,2.78-2.81,2.78ZM62.5,24.9h0c-6.87,0-12.5,5.56-12.5,12.35h0c0,6.79,5.62,12.35,12.5,12.35h0c6.87,0,12.5-5.56,12.5-12.35h0c0-6.79-5.62-12.35-12.5-12.35ZM62.5,40.03c-1.55,0-2.81-1.25-2.81-2.78s1.27-2.78,2.81-2.78,2.81,1.25,2.81,2.78-1.27,2.78-2.81,2.78ZM62.5,99.81h0c6.87,0,12.5-5.56,12.5-12.35h0c0-6.79-5.62-12.35-12.5-12.35h0c-6.87,0-12.5,5.56-12.5,12.35h0c0,6.79,5.62,12.35,12.5,12.35ZM62.5,84.68c1.55,0,2.81,1.25,2.81,2.78s-1.27,2.78-2.81,2.78-2.81-1.25-2.81-2.78,1.27-2.78,2.81-2.78ZM87.5,75.1h0c6.87,0,12.5-5.56,12.5-12.35h0c0-6.79-5.62-12.35-12.5-12.35h0c-6.87,0-12.5,5.56-12.5,12.35h0c0,6.79,5.62,12.35,12.5,12.35ZM87.5,59.97c1.55,0,2.81,1.25,2.81,2.78s-1.27,2.78-2.81,2.78-2.81-1.25-2.81-2.78,1.27-2.78,2.81-2.78ZM12.5,99.81h0c6.87,0,12.5-5.56,12.5-12.35h0c0-6.79-5.62-12.35-12.5-12.35h0c-6.87,0-12.5,5.56-12.5,12.35h0c0,6.79,5.62,12.35,12.5,12.35ZM12.5,84.68c1.55,0,2.81,1.25,2.81,2.78s-1.27,2.78-2.81,2.78-2.81-1.25-2.81-2.78,1.27-2.78,2.81-2.78ZM37.5,75.1h0c6.87,0,12.5-5.56,12.5-12.35h0c0-6.79-5.62-12.35-12.5-12.35h0c-6.87,0-12.5,5.56-12.5,12.35h0c0,6.79,5.62,12.35,12.5,12.35ZM37.5,59.97c1.55,0,2.81,1.25,2.81,2.78s-1.27,2.78-2.81,2.78-2.81-1.25-2.81-2.78,1.27-2.78,2.81-2.78Z" fill="#999"/></g></svg>