<?xml version="1.0" encoding="UTF-8"?><svg id="aw" xmlns="http://www.w3.org/2000/svg" viewBox="0 0 100 100"><g id="ax"><path d="M0,23.1c0-3.99,3.24-7.22,7.24-7.22s7.24,3.23,7.24,7.22-3.24,7.22-7.24,7.22S0,27.09,0,23.1ZM50.5,50c-13.76,0-24.92,11.19-24.92,25s11.16,25,24.92,25v-50ZM30.32,92.76c0-4-3.23-7.24-7.22-7.24s-7.22,3.24-7.22,7.24,3.23,7.24,7.22,7.24,7.22-3.24,7.22-7.24ZM92.76,69.68c-4,0-7.24,3.23-7.24,7.22s3.24,7.22,7.24,7.22,7.24-3.23,7.24-7.22-3.24-7.22-7.24-7.22ZM49.5,50c13.76,0,24.92-11.19,24.92-25S63.26,0,49.5,0v50ZM69.68,7.24c0,4,3.23,7.24,7.22,7.24s7.22-3.24,7.22-7.24-3.23-7.24-7.22-7.24-7.22,3.24-7.22,7.24Z" fill="#999"/></g><g id="ay"><path d="M0,50.5c0-13.76,11.19-24.92,25-24.92s25,11.16,25,24.92H0ZM40,28.91c5.52,0,10-4.46,10-9.97s-4.48-9.97-10-9.97-10,4.46-10,9.97,4.48,9.97,10,9.97ZM0,0c0,9.97,8.11,18.05,18.11,18.05S36.21,9.97,36.21,0H0ZM28.91,60c0-5.52-4.46-10-9.97-10s-9.97,4.48-9.97,10,4.46,10,9.97,10,9.97-4.48,9.97-10ZM0,100c9.97,0,18.05-8.11,18.05-18.11S9.97,63.79,0,63.79v36.21ZM50,49.5c0,13.76,11.19,24.92,25,24.92s25-11.16,25-24.92h-50ZM60,71.09c-5.52,0-10,4.46-10,9.97s4.48,9.97,10,9.97,10-4.46,10-9.97-4.48-9.97-10-9.97ZM100,100c0-9.97-8.11-18.05-18.11-18.05s-18.11,8.08-18.11,18.05h36.21ZM71.09,40c0,5.52,4.46,10,9.97,10s9.97-4.48,9.97-10-4.46-10-9.97-10-9.97,4.48-9.97,10ZM100,0c-9.97,0-18.05,8.11-18.05,18.11s8.08,18.11,18.05,18.11V0Z" fill="#c5c5c5"/></g></svg>