<?xml version="1.0" encoding="UTF-8"?><svg id="ab" xmlns="http://www.w3.org/2000/svg" viewBox="0 0 100 100"><g id="ac"><path d="M85.53,50l4.41-7.98,6.16-11.15-12.27-3.55-8.71-2.51-2.53-8.75-3.53-12.24-11.18,6.18-7.93,4.39-7.98-4.41-11.14-6.16-3.54,12.28-2.51,8.71-8.75,2.53-12.23,3.53,6.17,11.19,4.39,7.94-4.41,7.98-6.15,11.15,12.27,3.54,8.71,2.51,2.52,8.75,3.53,12.24,11.18-6.18,7.93-4.38,7.97,4.41,11.14,6.16,3.54-12.28,2.52-8.71,8.75-2.52,12.23-3.53-6.18-11.19-4.39-7.94ZM49.95,68.18c-10.03,0-18.17-8.14-18.17-18.18s8.13-18.18,18.17-18.18,18.16,8.14,18.16,18.18-8.13,18.18-18.16,18.18Z" fill="#999"/></g><g id="ad"><path d="M79.91,100h0v-.02c0-11.03,8.94-19.98,19.98-19.98h0v.02c0,11.03-8.94,19.98-19.98,19.98ZM80.02.21h0v.02c0,11.03,8.94,19.98,19.98,19.98h0v-.02c0-11.03-8.94-19.98-19.98-19.98ZM0,20.19v.02h0c11.03,0,19.98-8.94,19.98-19.98v-.02h0C8.94.21,0,9.16,0,20.19ZM19.98,100h0v-.02c0-11.03-8.94-19.98-19.98-19.98H0v.02c0,11.03,8.94,19.98,19.98,19.98ZM89.92,57.94l-7.08,5.66,1.03,9.06,1.43,12.65-12.7-1.41-9.01-1-5.67,7.12-7.93,9.96-7.97-9.99-5.66-7.08-9.06,1.02-12.64,1.43,1.41-12.7,1-9.01-7.12-5.68L0,50.04l9.97-7.98,7.08-5.66-1.02-9.06-1.43-12.66,12.69,1.41,9.01,1,5.67-7.13L49.91,0l7.97,9.99,5.66,7.09,9.05-1.03,12.65-1.43-1.41,12.7-1,9.02,7.12,5.68,9.96,7.94-9.98,7.98ZM68.11,50c0-10.04-8.13-18.18-18.16-18.18s-18.17,8.14-18.17,18.18,8.13,18.18,18.17,18.18,18.16-8.14,18.16-18.18Z" fill="#c5c5c5"/></g></svg>