<?xml version="1.0" encoding="UTF-8"?><svg id="ah" xmlns="http://www.w3.org/2000/svg" viewBox="0 0 100 100"><g id="ai"><path d="M100,10.64c0-4.07-2.28-7.6-5.64-9.39-1.49-.8-3.19-1.25-4.99-1.25h-10.64v11.57c-3.01-.25-6.11.77-8.42,3.07l-2.93,2.93s0,0,0,0c-.08-.67-.12-1.35-.12-2.05,0-.19,0-.39.01-.59h-6.65v-4.3c0-.84-.11-1.66-.29-2.45.81.19,1.63.29,2.46.29,2.72,0,5.44-1.04,7.52-3.11l5.35-5.35h-7.57c-3.82,0-7.18,2.02-9.05,5.06-1.87-3.03-5.22-5.06-9.05-5.06s-7.17,2.03-9.04,5.06c-.44-.71-.95-1.36-1.54-1.95-1.92-1.92-4.58-3.11-7.52-3.11h-7.57l5.35,5.35c2.71,2.71,6.51,3.65,9.98,2.82-.19.79-.3,1.61-.3,2.45v4.3h-6.65c.01.19.01.38.01.56,0,.7-.04,1.4-.12,2.08,0,0,0,0,0,0l-2.93-2.93c-2.3-2.3-5.4-3.32-8.41-3.07V0h-10.63s0,0,0,0,0,0,0,0c-2.64,0-5.06.97-6.91,2.57C1.44,4.52,0,7.4,0,10.64v10.63h11.57c-.25,3.01.77,6.11,3.07,8.41l2.93,2.93s0,0,0,0c-.68.09-1.38.13-2.08.13-.19,0-.37,0-.56-.01v6.64h-4.29c-.85,0-1.67.11-2.46.3.19-.81.29-1.63.29-2.46,0-2.72-1.04-5.44-3.11-7.52L0,24.33v7.57c0,3.83,2.02,7.19,5.06,9.06-3.03,1.87-5.06,5.22-5.06,9.04s2.03,7.17,5.06,9.04c-.71.44-1.36.95-1.94,1.54-1.92,1.93-3.11,4.59-3.11,7.52v7.57l5.35-5.35c2.71-2.71,3.65-6.51,2.82-9.98.79.19,1.61.3,2.46.3h4.3v6.61c.19,0,.37-.01.56-.01.71,0,1.42.05,2.11.13,0,0,0,0,0,0l-2.96,2.96c-2.31,2.31-3.33,5.41-3.07,8.42H0v10.64c0,2,.56,3.86,1.52,5.46,1.86,3.09,5.24,5.17,9.11,5.17,0,0,0,0,0,0s0,0,0,0h10.63v-11.57c3.01.25,6.11-.77,8.41-3.07l2.93-2.93s0,0,0,0c.08.67.12,1.35.12,2.05,0,.2,0,.39-.01.59h6.65v4.3c0,.85.11,1.67.3,2.46-.81-.19-1.64-.29-2.46-.29-2.72,0-5.44,1.04-7.52,3.11l-5.35,5.35h7.57c3.83,0,7.19-2.02,9.06-5.06,1.87,3.03,5.22,5.06,9.04,5.06,2.94,0,5.59-1.19,7.52-3.12.58-.58,1.09-1.24,1.52-1.94.44.71.95,1.36,1.54,1.94,1.93,1.92,4.59,3.11,7.52,3.11h7.57l-5.35-5.35c-2.71-2.71-6.51-3.65-9.98-2.82.19-.79.3-1.61.3-2.46v-4.29h6.65c-.01-.19-.01-.37-.01-.56,0-.71.04-1.4.12-2.08,0,0,0,0,0,0l2.93,2.93c2.31,2.31,5.41,3.33,8.42,3.07v11.57h10.64c5.87,0,10.63-4.76,10.63-10.63v-10.64h-11.57c.25-3.01-.77-6.11-3.07-8.42l-2.93-2.93s0,0,0,0c.68-.09,1.38-.13,2.08-.13.19,0,.37,0,.56,0v-6.64h4.3c.85,0,1.66-.11,2.45-.3-.19.81-.29,1.64-.29,2.46,0,2.72,1.04,5.44,3.11,7.52l5.36,5.35v-7.57c0-3.83-2.02-7.18-5.06-9.06,3.03-1.87,5.06-5.22,5.06-9.04,0-1.92-.52-3.72-1.41-5.28-.47-.82-1.04-1.58-1.7-2.24-.58-.58-1.24-1.09-1.94-1.52.71-.44,1.36-.95,1.94-1.54,1.92-1.92,3.11-4.58,3.11-7.52v-7.57l-5.36,5.35c-2.71,2.71-3.65,6.51-2.82,9.98-.79-.19-1.61-.3-2.45-.3h-4.3v-6.6c-.19,0-.37,0-.56,0-.71,0-1.42-.04-2.11-.13,0,0,0,0,0,0l2.96-2.96c2.3-2.3,3.32-5.4,3.07-8.41h11.57v-10.63ZM46.69,58c-.04-.08-.08-.15-.12-.23-.05-.1-.11-.2-.17-.3-.17-.31-.36-.6-.57-.89-.09-.12-.17-.23-.26-.34-.08-.1-.16-.2-.24-.3-.08-.09-.16-.19-.25-.28-.11-.12-.23-.25-.35-.37h-.01c-.11-.12-.22-.23-.34-.33-.09-.09-.19-.18-.29-.26,0,0,0-.01-.01-.01-.1-.08-.2-.17-.3-.25-.34-.27-.7-.51-1.06-.73-.1-.06-.19-.11-.28-.17-.05-.02-.09-.04-.13-.07-.1-.05-.21-.11-.31-.16.35-1.04.53-2.15.53-3.31s-.18-2.27-.53-3.31c.1-.05.21-.11.31-.16.04-.03.08-.05.13-.07.09-.06.18-.11.28-.17.24-.14.47-.3.7-.46.12-.09.23-.17.34-.26.11-.08.22-.17.33-.27.1-.08.2-.17.3-.27.11-.1.22-.2.33-.31.09-.09.17-.18.26-.27l.05-.05c.09-.1.18-.21.27-.31.09-.11.18-.22.27-.33.09-.11.17-.22.26-.34.26-.37.5-.75.71-1.14.05-.09.1-.18.15-.27,1.04.34,2.15.53,3.31.53s2.27-.19,3.31-.53c.05.09.1.18.15.27.24.46.53.9.85,1.32.06.09.13.18.2.27.03.03.05.06.08.09.09.12.19.23.29.35.01.01.02.01.03.02.12.13.24.26.37.39.12.13.25.25.38.37.3.26.6.51.92.74.12.09.24.17.37.25.16.11.32.21.48.3.12.07.23.14.35.2.07.04.14.07.21.11h.01c-.35,1.04-.53,2.15-.53,3.31s.18,2.27.53,3.31h-.01s-.02.01-.03.02c-.1.05-.2.1-.29.16-.26.13-.51.28-.75.45-.14.09-.28.18-.41.28-.14.11-.28.22-.42.33-.14.11-.27.22-.4.34,0,0-.01,0-.02.02-.13.12-.26.24-.39.37-.13.13-.26.26-.38.4-.11.12-.22.24-.32.37-.02.03-.05.05-.07.08-.07.09-.14.18-.2.27-.27.34-.5.7-.71,1.07-.06.1-.12.2-.17.3-.04.08-.08.15-.12.23-1.04-.35-2.15-.53-3.31-.53s-2.27.18-3.31.53Z" fill="#c5c5c5"/></g><g id="aj"><path d="M99.99,49.45c-.02-.36-.06-.72-.11-1.07-.03-.18-.06-.35-.1-.52-.07-.35-.16-.69-.26-1.02-.1-.34-.22-.66-.36-.98-.33-.8-.76-1.54-1.27-2.23-.2-.27-.42-.53-.65-.78-.11-.13-.23-.25-.35-.37s-.25-.24-.37-.35c-.25-.23-.52-.45-.79-.65-.25-.19-.51-.37-.78-.53-.71.44-1.47.79-2.27,1.06-.38-.75-.67-1.55-.86-2.35.07.01.14.03.2.04-.06-.02-.13-.04-.2-.05-.44-.11-.9-.19-1.36-.23-.18-.02-.36-.04-.54-.04-.18-.02-.36-.02-.55-.02h-4.3v-6.6c-.19,0-.37,0-.56,0-.71,0-1.42-.04-2.11-.13-7.86-.96-14.08-7.2-15.01-15.07-.08-.67-.12-1.35-.12-2.05,0-.19,0-.39.01-.59h-6.64v-4.3c0-.84-.1-1.67-.29-2.45h0c-.8-.19-1.6-.48-2.35-.86.26-.8.62-1.56,1.06-2.26h0c-.16-.28-.34-.54-.53-.79-.2-.27-.42-.54-.65-.79-1.94-2.14-4.75-3.48-7.87-3.48-.18,0-.37,0-.55.01-.36.02-.72.06-1.07.11-.18.03-.35.06-.52.1-.35.07-.69.16-1.02.26-.34.1-.66.22-.98.36-.79.33-1.54.76-2.22,1.27-.27.2-.54.42-.79.65-.13.11-.25.23-.37.35s-.24.24-.35.37c-.23.25-.45.52-.65.79-.19.25-.36.51-.53.78.44.71.79,1.47,1.06,2.27-.75.38-1.55.67-2.35.86h0c-.02.1-.04.2-.06.3-.04.18-.07.35-.1.53-.05.35-.09.71-.11,1.07-.01.18-.01.37-.01.55v4.3h-6.65c.01.19.01.38.01.56,0,.7-.04,1.4-.12,2.08-.47,3.93-2.27,7.46-4.93,10.12s-6.18,4.45-10.11,4.92c-.68.09-1.38.13-2.08.13-.19,0-.37,0-.56-.01v6.64h-4.3c-.84,0-1.67.1-2.45.29-.2.8-.48,1.6-.86,2.35-.8-.26-1.56-.62-2.26-1.06h-.01c-.33.2-.65.42-.95.67-.15.11-.3.23-.44.35-.19.16-.37.33-.54.51-.19.19-.37.38-.53.58-.11.11-.21.23-.3.35-.16.21-.32.42-.47.64-.39.57-.72,1.17-.98,1.81-.12.28-.23.56-.32.85-.34,1.04-.52,2.14-.52,3.29,0,.19,0,.37.01.55.02.36.06.72.11,1.06.03.18.06.36.1.53.07.34.16.68.26,1.02.1.33.22.66.36.98.33.79.76,1.54,1.27,2.22.16.21.32.42.49.61.17.18.33.37.51.54h0c.24.25.49.48.76.69.37.31.77.59,1.18.84.71-.44,1.47-.79,2.27-1.05.38.75.67,1.55.86,2.35.27.07.55.12.84.17.35.05.7.09,1.06.11.19.01.37.01.56.01h4.29v6.61c.19,0,.37-.01.56-.01.71,0,1.42.05,2.11.13,7.86.96,14.08,7.2,15.01,15.07.08.67.12,1.35.12,2.05,0,.2,0,.39-.01.59h6.65v4.29c0,.85.1,1.67.29,2.46.8.2,1.6.48,2.35.86-.26.8-.62,1.56-1.06,2.26.43.7.95,1.36,1.53,1.94.24.24.49.47.76.69.39.32.81.62,1.25.89.44.27.89.5,1.37.7.32.14.64.26.98.36,1,.31,2.06.48,3.16.48.18,0,.37,0,.55-.01.36-.02.72-.06,1.07-.11.18-.03.35-.06.52-.1.35-.07.69-.16,1.02-.26.34-.1.66-.22.98-.36.16-.07.32-.14.47-.21.46-.23.9-.48,1.33-.76,0,0,0-.01.01-.01.22-.15.43-.31.64-.47.12-.09.23-.19.35-.3.1-.08.2-.17.29-.25.1-.09.19-.18.29-.28.17-.17.34-.35.51-.54.17-.2.33-.4.49-.61.19-.25.37-.51.52-.78-.44-.71-.79-1.47-1.05-2.27.75-.38,1.55-.67,2.35-.86-.01.07-.03.14-.04.2.02-.07.04-.13.05-.2.02-.07.03-.14.04-.21.04-.14.06-.28.09-.43.04-.22.07-.44.09-.66.01-.04.02-.07.01-.11.02-.18.04-.36.04-.54.01-.09.02-.17.01-.25.01-.09.01-.18.01-.26v-4.29h6.64c-.01-.19-.01-.37-.01-.56,0-.71.04-1.4.12-2.08.94-7.86,7.18-14.1,15.04-15.04.68-.09,1.38-.13,2.08-.13.19,0,.37,0,.56,0v-6.64h4.3c.84,0,1.67-.1,2.45-.29.19-.8.48-1.6.86-2.35.8.26,1.56.62,2.26,1.06,3.04-1.87,5.06-5.22,5.06-9.05,0-.18,0-.37-.01-.55ZM37.2,22.16l2.17,2.17,5.35,5.35c.13.13.25.26.38.4.36.4.69.83.98,1.27.39.59.72,1.21.98,1.85.13.32.24.65.34.98.04.12.07.25.1.37s.06.25.09.37c.03.13.05.25.07.38.02.09.04.18.05.27,0,.03,0,.07,0,.11.02.12.04.25.05.38.01.06.02.13.02.19.01.06.01.13.01.19.01.03.01.06.01.1.01.06.02.13.01.2.01.15.01.31.01.46,0,.41-.02.83-.07,1.23-.02.21-.05.41-.09.62-.03.2-.08.4-.12.6-.05.2-.1.39-.15.58-.01.01-.01.02-.01.03-.12.4-.26.79-.43,1.17-.09.19-.18.38-.27.57h0c-.05.1-.1.19-.15.28-.21.39-.45.77-.71,1.14-.09.12-.17.23-.26.34-.09.11-.18.22-.27.33-.09.1-.18.21-.27.31l-.05.05c-.09.09-.17.18-.26.27-.11.11-.22.21-.33.31-.1.1-.2.19-.3.27-.11.1-.22.19-.33.27-.11.09-.22.17-.34.26-.23.16-.46.32-.7.46-.1.06-.19.11-.28.17-.05.02-.09.04-.13.07-.1.05-.21.11-.31.16,0,0,0,0,0,0-.07.04-.15.07-.22.11-.08.04-.15.07-.23.11-.01,0-.02.01-.03.02-.02,0-.05.02-.07.03,0,0-.02,0-.03.01,0,0,0,0,0,0-.01,0-.03.01-.04.02-.18.07-.35.14-.53.21-.19.08-.39.14-.59.2-.18.05-.35.1-.53.14-.02,0-.05.01-.07.02-.01,0-.03,0-.04,0-.12.04-.25.06-.37.08,0,0,0,0,0,0,0,0,0,0-.01,0-.13.03-.26.05-.39.07-.04,0-.07.01-.11.02-.17.03-.34.05-.51.06-.08.01-.16.02-.23.02-.02,0-.04,0-.06,0-.06,0-.12,0-.19.01-.05,0-.11,0-.16,0-.04,0-.09,0-.14,0-.08,0-.16,0-.24,0h-.18c-.08,0-.17,0-.25,0-.12,0-.23-.01-.35-.02h0c-.09,0-.17-.02-.26-.02-.04,0-.08,0-.12-.01-.26-.02-.51-.06-.76-.11-.04,0-.08-.02-.12-.02-.09-.02-.17-.03-.26-.05-.09-.02-.17-.04-.26-.06-.04,0-.08-.02-.11-.03-.04,0-.08-.02-.12-.03-.09-.02-.17-.04-.26-.07-.33-.1-.65-.21-.97-.34h0c-.32-.14-.63-.28-.94-.44-.04-.02-.08-.04-.11-.06-.07-.04-.15-.08-.22-.13-.04-.02-.08-.05-.12-.07-.05-.02-.09-.06-.14-.08-.09-.05-.17-.1-.26-.16-.22-.14-.42-.31-.63-.47-.12-.09-.24-.16-.35-.26-.08-.06-.16-.13-.24-.2-.04-.03-.07-.06-.11-.09-.13-.12-.26-.24-.39-.38l-5.36-5.35h0l-2.17-2.17,15.04-15.04ZM22.16,62.8l2.17-2.17,1.22-1.22,4.13-4.13c.1-.1.21-.2.31-.3.03-.03.06-.06.09-.08.04-.04.09-.07.14-.11.23-.2.46-.39.69-.57.4-.3.82-.55,1.24-.78.03-.02.07-.04.1-.06.3-.16.62-.3.94-.44.05-.02.11-.04.16-.06,1.23-.47,2.54-.72,3.84-.72.21,0,.41,0,.62.02.16,0,.32.02.48.04.09,0,.17.01.24.02.02,0,.04,0,.07,0,.08,0,.18.02.26.04.02,0,.04,0,.06,0,.07.01.15.02.22.04.11.02.22.04.32.07.08,0,.15.03.22.04.01,0,.03,0,.04,0,.18.04.35.09.53.14.2.06.4.12.59.2.09.03.18.07.27.1.1.04.2.08.31.12,0,0,0,0,.01,0,0,0,0,0,.01,0,.19.08.37.16.56.26h0c.1.05.21.11.31.16.04.03.08.05.13.07.09.06.18.11.28.17.36.22.72.46,1.06.73.1.08.2.17.3.25.01,0,.01.01.01.01.1.08.2.17.29.26.12.1.23.21.34.32h.01c.12.13.24.26.35.38.09.09.17.19.25.28.08.1.16.2.24.3.09.11.17.22.26.34.21.29.4.58.57.89.06.1.12.2.17.3.04.08.08.15.12.23.09.19.18.38.27.57.16.38.31.78.43,1.17,0,.01,0,.02.01.03.05.19.1.38.15.58.04.2.09.4.12.6.04.2.07.41.09.61v.02c.23,1.93-.08,3.91-.91,5.7-.06.13-.12.25-.19.38-.02.04-.04.09-.07.13t-.01.02v.02h-.01s-.01.01,0,.02c-.01.01-.02.03-.03.04h0v.02h-.01v.02s-.02.03-.03.05c-.01.03-.03.05-.05.08h0s-.03.08-.06.11c0,.01,0,.02-.02.03h0s-.04.08-.07.12c-.06.11-.13.22-.21.33h0c-.09.15-.2.3-.3.44-.1.13-.2.26-.31.39-.09.11-.18.22-.28.33-.15.17-.3.34-.47.51l-7.52,7.52-15.04-15.04ZM62.8,77.84l-7.52-7.52c-.2-.2-.39-.41-.57-.62-1.7-1.98-2.54-4.44-2.54-6.9h0c0-.22,0-.42.02-.62,0-.15.02-.31.03-.46.01-.12.03-.23.05-.35,0-.08.02-.16.03-.23.01-.1.03-.19.05-.29.01-.1.03-.19.05-.28.02-.1.05-.2.07-.3.04-.18.09-.35.14-.53.06-.2.13-.39.2-.59.07-.18.14-.37.22-.55,0-.03.02-.06.04-.09.07-.16.15-.32.23-.48,0-.01.01-.02.01-.03.04-.08.08-.15.12-.23.05-.1.11-.2.17-.3.21-.37.44-.73.71-1.07.06-.09.13-.18.2-.27.02-.03.05-.05.07-.08.1-.13.21-.25.32-.37.12-.14.25-.27.38-.4.13-.13.26-.25.39-.37.01-.01.02-.02.02-.02.13-.12.26-.23.4-.34.14-.11.28-.22.42-.33.13-.1.27-.19.41-.28.24-.17.49-.32.75-.45.09-.06.19-.11.29-.16,0,0,.02,0,.03-.02.02.06.04.12.07.18-.03-.06-.05-.12-.06-.18.03-.02.06-.03.09-.04.11-.06.23-.12.35-.17.06-.03.13-.06.2-.09.02-.01.04-.01.06-.02.14-.07.29-.12.44-.18h.01s.06-.02.09-.03c.16-.06.33-.12.5-.17.18-.05.35-.1.53-.14.16-.04.33-.08.5-.11.17-.03.33-.06.5-.08.17-.03.34-.05.51-.06.08-.01.16-.02.24-.02.07-.01.15-.02.23-.02.06,0,.11-.01.17,0,.26-.01.52-.01.79-.01.24.01.48.03.71.05.07.01.14.02.2.03.08.01.15.02.22.03.13.02.27.04.4.06.09.02.19.04.28.06.04.01.08.01.11.02.11.03.22.05.33.08.12.03.24.07.36.1h.01c.33.1.65.21.97.34s.63.28.94.44c.31.16.61.34.91.54.11.07.22.14.33.22.11.08.22.16.32.25.02,0,.04.02.06.04.08.06.16.13.24.19.11.09.22.19.32.28.14.12.27.25.4.38l5.35,5.35,2.16,2.17-15.03,15.04ZM75.67,39.37l-5.35,5.35c-.26.26-.53.51-.81.73-.56.46-1.15.85-1.77,1.17-.31.16-.62.31-.94.44s-.65.24-.98.34c-.24.07-.49.14-.74.19-.22.05-.43.09-.65.12-.03,0-.07.01-.11.01-.12.02-.25.04-.38.05-.12.01-.25.02-.38.03-.03.01-.06.01-.1.01-.06.01-.13.02-.2.01-.15,0-.31,0-.46,0h-.2c-.07,0-.14,0-.2,0-.04,0-.09,0-.14,0-.16-.01-.32-.02-.48-.04-.17-.01-.34-.03-.51-.06-.17-.02-.33-.05-.5-.08-.32-.06-.64-.14-.95-.23-.19-.05-.37-.11-.55-.18-.1-.03-.19-.07-.29-.1-.11-.04-.22-.09-.32-.13-.08-.03-.15-.07-.22-.1-.15-.07-.3-.14-.44-.21,0-.01,0-.03.01-.04-.01.01-.01.03-.02.04-.07-.04-.14-.07-.21-.11-.12-.06-.23-.13-.35-.2-.16-.09-.32-.19-.48-.3-.13-.08-.25-.16-.37-.25-.32-.23-.62-.48-.92-.74-.13-.12-.26-.24-.38-.37-.13-.13-.25-.26-.37-.39,0,0-.02,0-.03-.02-.1-.12-.2-.23-.29-.35-.03-.03-.05-.06-.08-.09-.07-.09-.14-.18-.2-.27-.32-.42-.61-.86-.85-1.32-.05-.09-.1-.18-.15-.27h0c-.08-.18-.17-.35-.24-.52-.02-.03-.03-.06-.04-.09-.08-.18-.15-.37-.22-.55-.07-.2-.14-.39-.2-.59-.04-.15-.08-.3-.11-.44-.04-.12-.06-.23-.08-.35-.01-.01-.01-.03-.02-.05-.02-.09-.04-.18-.05-.27t0-.02c-.01-.08-.03-.17-.04-.26-.01-.08-.03-.17-.04-.26-.01-.1-.03-.2-.03-.31t-.01-.02c0-.16-.03-.31-.03-.46-.02-.21-.02-.41-.02-.62,0-1.19.19-2.38.59-3.52.03-.09.07-.18.1-.27.27-.72.63-1.41,1.06-2.06.19-.3.4-.58.63-.86.23-.28.47-.55.73-.81l5.35-5.35,2.17-2.17,15.03,15.04-2.16,2.17ZM100,10.64c0,5.87-4.76,10.62-10.63,10.62h-.94c-.2-2.41-1.22-4.77-3.07-6.62-1.85-1.85-4.21-2.87-6.62-3.07v-.93c0-2.94,1.19-5.6,3.11-7.53,1.92-1.92,4.58-3.11,7.51-3.11.2,0,.4.01.6.01.32.02.64.06.96.1.2.03.39.07.59.11.34.07.68.15,1.02.26.83.26,1.62.62,2.35,1.06.18.11.36.23.54.35.26.18.52.38.76.58.49.41.94.86,1.35,1.35.2.24.4.5.58.76.12.18.24.36.35.54.45.74.81,1.53,1.06,2.36.11.33.19.67.26,1.01.04.18.07.35.1.53.05.35.09.71.11,1.07.01.18.01.37.01.55ZM21.26,10.64v.93c-2.41.2-4.77,1.22-6.62,3.07-1.85,1.85-2.87,4.21-3.07,6.62h-.93c-2.94,0-5.6-1.19-7.53-3.11-1.92-1.92-3.11-4.58-3.11-7.51,0-.18,0-.37.01-.55.02-.36.06-.72.11-1.07.03-.18.06-.36.1-.53.07-.35.16-.68.26-1.01.26-.84.61-1.63,1.06-2.36.11-.18.23-.36.35-.54.18-.26.37-.51.58-.76.2-.24.41-.48.64-.71.23-.23.46-.44.71-.64.24-.21.5-.4.76-.58.17-.12.36-.24.54-.35.72-.45,1.51-.8,2.35-1.06.29-.09.6-.17.9-.23.24-.06.47-.1.71-.14.32-.04.64-.08.96-.1.2,0,.39-.01.59-.01h.01c5.87.01,10.62,4.76,10.62,10.64ZM100,89.37c0,.18,0,.37-.01.55-.02.36-.06.72-.11,1.07-.03.17-.06.35-.1.52-.07.35-.15.69-.26,1.02-.1.33-.22.66-.36.97-.33.8-.76,1.55-1.27,2.23-.2.27-.42.54-.65.79s-.47.49-.72.72-.52.45-.79.65c-.68.51-1.43.94-2.23,1.27-.31.13-.64.25-.97.36h-.01c-.33.1-.66.19-1.01.26-.17.04-.35.07-.53.1-.35.05-.71.09-1.06.11-.18.01-.37.01-.55.01h-.01c-5.87,0-10.62-4.76-10.62-10.63v-.94c2.41-.2,4.77-1.22,6.62-3.07,1.85-1.85,2.87-4.21,3.07-6.62h.94c2.93,0,5.59,1.19,7.52,3.11,1.92,1.93,3.11,4.58,3.11,7.52ZM21.26,88.43v.94c0,2.93-1.19,5.59-3.11,7.52-1.93,1.92-4.57,3.11-7.51,3.11-.19,0-.37,0-.56-.01-.36-.02-.71-.06-1.06-.11-.18-.03-.36-.06-.53-.1-.35-.07-.68-.16-1.01-.26h-.01c-.33-.11-.66-.23-.97-.36-.8-.33-1.55-.76-2.23-1.27-.27-.2-.54-.42-.79-.65-.12-.11-.25-.23-.37-.35-.12-.12-.24-.24-.35-.37-.23-.25-.45-.52-.65-.79-.71-.95-1.27-2.03-1.63-3.2-.09-.29-.17-.6-.23-.9-.06-.21-.09-.42-.13-.64-.05-.35-.09-.71-.11-1.07-.01-.18-.01-.37-.01-.55,0-5.87,4.76-10.63,10.64-10.63h.93c.2,2.41,1.22,4.77,3.07,6.62,1.85,1.85,4.21,2.87,6.62,3.07Z" fill="#999"/></g></svg>