<?xml version="1.0" encoding="UTF-8"?><svg id="bf" xmlns="http://www.w3.org/2000/svg" viewBox="0 0 100 100"><g id="bg"><path d="M50,50l-25,25h0C11.19,75,0,63.81,0,50h50ZM50,0h0C36.19,0,25,11.19,25,25l25,25h0V0ZM75,25l-25,25h0s50,0,50,0c0-13.81-11.19-25-25-25ZM50,100h0c13.81,0,25-11.19,25-25l-25-25v50Z" fill="#c5c5c5"/></g><g id="bh"><path d="M50,50h0v50c-13.81,0-25-11.19-25-25l25-25ZM25,25C11.19,25,0,36.19,0,50H0s50,0,50,0l-25-25ZM50,0v50l25-25C75,11.19,63.81,0,50,0ZM50,50l25,25c13.81,0,25-11.19,25-25h0s-50,0-50,0h0Z" fill="#999"/></g></svg>