<?xml version="1.0" encoding="UTF-8"?>
<svg id="icon" xmlns="http://www.w3.org/2000/svg" viewBox="0 0 550 542.26">
  <defs>
    <style>
      .cls-1 {
        fill: #fff;
      }
    </style>
  </defs>
  <g id="vp8fl3">
    <g>
      <path d="M16.45,108.13c-2.15-8.52-4.26-16.89-6.38-25.27-2.32-9.18-4.68-18.35-6.97-27.54C-.44,41.11,7.64,27.44,21.81,23.84,52.17,16.12,82.54,8.45,112.92.82c14.14-3.55,27.84,4.75,31.41,18.87,11.28,44.57,22.57,89.13,33.81,133.71.33,1.32.99,1.89,2.2,2.28,2.25.72,4.55,1.4,6.66,2.44,7.14,3.51,11.74,9.19,13.63,16.92,8.16,33.43,16.27,66.87,24.4,100.31,6.05,24.88,12.09,49.76,18.15,74.63,1.1,4.5,4.16,6.88,8.82,6.88,21.98,0,43.96,0,65.94,0,9.14,0,16.23,5.79,17.67,14.44.2,1.19.2,2.41.22,3.62.03,1.97,0,3.95,0,6.19.83,0,1.52,0,2.21,0,19.94,0,39.88-.02,59.82.01,11.11.02,20.23,5.99,24.36,15.85,1.36,3.25,1.95,6.65,1.95,10.15,0,27.71.03,55.42,0,83.13-.02,14.8-11.33,26.05-26.12,26.06-20.05.02-40.1,0-60.16,0-.6,0-1.2,0-2.08,0,0,.86,0,1.6,0,2.35,0,2.2.04,4.41,0,6.61-.2,9.56-7.58,16.91-17.13,16.96-11.62.06-23.25.01-34.87.01-36.91,0-73.82.01-110.73,0-27.08-.01-50.11-9.67-68.8-29.28-11.51-12.07-18.8-26.48-22.72-42.66-10.71-44.14-21.48-88.27-32.22-132.41-12.95-53.17-25.89-106.35-38.84-159.52-3.24-13.32-6.48-26.64-9.73-39.96-3.06-12.55,2.72-24.39,14.46-29.68.35-.16.68-.34,1.18-.58ZM57.83,299.57c.24,1.04.41,1.79.59,2.53,13.43,55.16,26.81,110.33,40.31,165.47,8.27,33.77,38.23,57.39,72.84,57.43,48.42.07,96.85.02,145.27.01.58,0,1.16-.05,1.72-.08v-150.9c-.83,0-1.53,0-2.23,0-21.37.02-42.75.05-64.12.06-12.91,0-22.8-7.8-25.85-20.35-4.21-17.34-8.44-34.67-12.58-52.02-.41-1.74-1.09-2.2-2.84-2.2-50.35.05-100.7.04-151.06.04h-2.05ZM159.11,148.65c-.13-.75-.18-1.14-.27-1.5-10.35-40.88-20.7-81.75-31.07-122.63-1.48-5.83-5.63-8.28-11.46-6.8-29.89,7.55-59.78,15.11-89.66,22.66-5.64,1.43-8.14,5.6-6.72,11.22,4.6,18.2,9.21,36.4,13.78,54.6.29,1.15.83,1.71,1.97,2.08,37.42,12.21,74.82,24.47,112.23,36.72,3.65,1.19,7.29,2.38,11.2,3.65ZM191.01,208.44c-.18-.82-.28-1.31-.4-1.78-2.17-8.93-4.38-17.86-6.5-26.8-.86-3.61-2.97-5.88-6.5-6.99-5.15-1.61-10.26-3.33-15.39-5.01-44.53-14.56-89.07-29.11-133.59-43.69-3.3-1.08-6.22-.63-8.73,1.72-2.46,2.31-3.16,5.17-2.36,8.46,5.88,24.07,11.75,48.13,17.56,72.22.38,1.6,1.07,1.91,2.57,1.91,50.4-.04,100.8-.03,151.2-.03.65,0,1.3,0,2.15,0ZM208.82,282.26c-.19-.94-.31-1.58-.46-2.21-4.2-17.28-8.4-34.56-12.61-51.84-.7-2.89-.26-2.4-3.09-2.4-50.19-.02-100.37-.01-150.56-.01h-2.09c.15.73.23,1.26.36,1.79,4.31,17.71,8.63,35.41,12.9,53.12.31,1.28.9,1.57,2.15,1.57,50.52-.03,101.03-.03,151.55-.02h1.86ZM335.97,498.97c.63.04,1.16.09,1.7.09,19.99,0,39.99,0,59.98,0,5.93,0,9.3-3.42,9.3-9.36,0-27.32,0-54.64,0-81.96,0-6.04-3.37-9.41-9.41-9.41-19.94,0-39.88,0-59.81,0-.58,0-1.16.06-1.75.1v100.54Z"/>
      <path d="M475.37,457.3c-8.54,0-17.07.04-25.61-.01-5.2-.03-8.86-3.53-8.96-8.4-.1-4.82,3.58-8.77,8.4-8.78,17.46-.04,34.92-.04,52.38,0,4.7,0,8.36,3.72,8.49,8.39.13,4.64-3.39,8.45-8.1,8.77-.22.01-.44.03-.66.03-8.65,0-17.29,0-25.94,0Z"/>
      <path d="M516.53,480.59c8.26,0,16.52-.03,24.78.01,3.65.02,6.37,1.74,7.86,5.06,1.49,3.32.95,6.47-1.42,9.24-1.67,1.95-3.89,2.88-6.43,2.89-16.47.02-32.93.04-49.4,0-5.01-.01-8.75-3.84-8.72-8.68.03-4.83,3.8-8.48,8.87-8.5,8.15-.03,16.3,0,24.45,0Z"/>
      <path d="M522.18,416.82c-6.33,0-12.66.04-18.99-.02-4.05-.04-7.31-2.58-8.32-6.31-1.01-3.71.44-7.67,3.79-9.55,1.33-.75,3-1.26,4.52-1.27,12.71-.1,25.43-.08,38.14-.04,4.9.02,8.64,3.82,8.64,8.57,0,4.76-3.74,8.55-8.63,8.6-6.38.07-12.77.02-19.15.02Z"/>
      <path d="M459.52,416.82c-3.3,0-6.6.03-9.9,0-5.12-.05-8.85-3.76-8.82-8.71.03-4.85,3.76-8.45,8.86-8.48,6.71-.03,13.43-.04,20.14,0,5.01.03,8.8,3.79,8.78,8.6-.02,4.82-3.81,8.54-8.81,8.59-3.41.04-6.82,0-10.23,0Z"/>
      <path d="M536.27,457.26c-1.87,0-3.75.1-5.61-.02-4.58-.3-8.09-4.21-7.95-8.73.14-4.59,3.74-8.29,8.33-8.39,3.52-.08,7.05-.08,10.57,0,4.64.1,8.32,3.89,8.37,8.52.05,4.54-3.47,8.34-8.08,8.61-1.86.11-3.74.02-5.61.02Z"/>
      <path d="M453.26,497.88c-1.81-.08-3.65,0-5.43-.28-4.36-.69-7.26-4.5-7.02-9,.23-4.28,3.66-7.76,8.01-7.95,2.8-.12,5.61-.1,8.42-.03,4.87.11,8.48,3.76,8.51,8.5.03,4.81-3.61,8.53-8.52,8.69-1.32.04-2.64,0-3.96,0,0,.03,0,.05,0,.08Z"/>
      <path class="cls-1" d="M57.83,299.57h2.05c50.35,0,100.7,0,151.06-.04,1.76,0,2.43.46,2.84,2.2,4.14,17.35,8.37,34.68,12.58,52.02,3.05,12.55,12.94,20.35,25.85,20.35,21.37-.01,42.75-.04,64.12-.06.7,0,1.4,0,2.23,0v150.9c-.55.03-1.13.08-1.72.08-48.42,0-96.85.05-145.27-.01-34.6-.05-64.57-23.66-72.84-57.43-13.5-55.14-26.88-110.31-40.31-165.47-.18-.74-.35-1.48-.59-2.53Z"/>
      <path class="cls-1" d="M159.11,148.65c-3.91-1.27-7.56-2.45-11.2-3.65-37.41-12.25-74.81-24.5-112.23-36.72-1.14-.37-1.68-.94-1.97-2.08-4.57-18.21-9.18-36.4-13.78-54.6-1.42-5.62,1.08-9.79,6.72-11.22,29.89-7.55,59.78-15.11,89.66-22.66,5.83-1.47,9.98.97,11.46,6.8,10.36,40.87,20.71,81.75,31.07,122.63.09.37.14.75.27,1.5Z"/>
      <path class="cls-1" d="M191.01,208.44c-.85,0-1.5,0-2.15,0-50.4,0-100.8,0-151.2.03-1.49,0-2.18-.31-2.57-1.91-5.8-24.08-11.68-48.15-17.56-72.22-.8-3.28-.1-6.15,2.36-8.46,2.51-2.35,5.42-2.81,8.73-1.72,44.52,14.59,89.06,29.14,133.59,43.69,5.13,1.68,10.24,3.4,15.39,5.01,3.53,1.11,5.64,3.38,6.5,6.99,2.13,8.94,4.33,17.87,6.5,26.8.12.48.21.96.4,1.78Z"/>
      <path class="cls-1" d="M208.82,282.26h-1.86c-50.52,0-101.03,0-151.55.02-1.25,0-1.84-.29-2.15-1.57-4.27-17.71-8.6-35.42-12.9-53.12-.13-.52-.21-1.06-.36-1.79h2.09c50.19,0,100.37,0,150.56.01,2.84,0,2.39-.49,3.09,2.4,4.21,17.28,8.41,34.56,12.61,51.84.15.63.27,1.27.46,2.21Z"/>
      <path class="cls-1" d="M335.97,498.97v-100.54c.6-.03,1.17-.09,1.75-.1,19.94,0,39.88,0,59.81,0,6.05,0,9.41,3.37,9.41,9.41,0,27.32,0,54.64,0,81.96,0,5.94-3.37,9.35-9.3,9.36-19.99.02-39.99,0-59.98,0-.54,0-1.07-.06-1.7-.09Z"/>
    </g>
  </g>
</svg>