<svg id="icon-other" xmlns="http://www.w3.org/2000/svg" version="1.1" viewBox="0 0 550 550">
  <path d="M279.9,550.2c-19,0-38.2,0-57.2,0-33.8,0-53.2-19.4-53.3-53.1v-11c-.1-33.8-.2-68.8.1-103.1,0-1,0-1.8,0-2.3-.5,0-1.2,0-2.1,0-32.5.3-65.6.3-97.6.2h-15.3C18.8,380.6,0,361.8,0,326.3v-7c0-32,0-65,0-97.6,0-32.4,19.4-51.9,51.6-52.1,23.4-.2,47.2-.1,70.2-.1,13.4,0,26.9,0,40.3,0,2.3,0,4.6-.1,7.2-.3v-5.1c0-11,0-22.1,0-33.1,0-26.1,0-53.2.2-79.7.1-15.5,5-28.5,14-37.5C192.5,5,205.4.2,220.9.1c32.6-.2,67.9-.2,108.1,0,31.6,0,51.4,19.7,51.6,51.2.3,33.7.4,73.6-.1,114.2,0,2.1.1,3.4.2,4.1.6.1,1.8.2,3.6.2,30.7-.5,61.9-.4,92.1-.3,6.6,0,13.1,0,19.7,0,34.7.1,53.8,19.2,53.8,53.7,0,38.9,0,73.1,0,104.5h0c0,33.6-19.5,53-53.3,53.1-7.6,0-15.3,0-22.9.1-28.7.1-58.5.3-87.7-.4-3.1,0-4.6.2-5.2.4-.2.6-.5,2.2-.4,5.7.5,28.1.4,56.6.3,84.2,0,8.4,0,16.8,0,25.2,0,34.9-19.5,54.1-54.7,54.2h-1c-14.9,0-30,0-45.1,0h0ZM167.6,362.2c4.4,0,10.6.6,15.1,5.1,4.7,4.7,5.2,11.2,5.1,15.8-.3,34.3-.2,69.2-.1,102.9v11c0,23.7,11.2,34.8,35,34.8,34.1,0,68.8,0,102.3,0h1c25.1,0,36.3-11.1,36.4-35.8,0-8.4,0-16.8,0-25.3.1-27.5.2-55.9-.3-83.8-.1-6.5.5-14,5.7-19.2,5.3-5.3,12.8-5.8,18.7-5.6,29,.7,58.6.5,87.2.4,7.7,0,15.3,0,23-.1,23.8,0,34.9-11.1,35-34.8,0-31.4,0-65.6,0-104.5,0-24.4-11-35.3-35.5-35.4-6.6,0-13.1,0-19.7,0-30.1-.1-61.2-.2-91.7.3-5.4,0-12.2-.4-17.1-5.4-4.9-4.9-5.5-11.6-5.4-17.5.6-40.4.4-80.2.1-113.8-.2-21.2-12-32.8-33.3-32.9-40.1-.1-75.5-.1-108,0-21.5.1-32.9,11.5-33.1,33-.2,26.5-.2,53.5-.2,79.6,0,11.1,0,22.1,0,33.2v13.7c0,4.9-3.8,8.9-8.7,9.2-2,.1-3.9.2-5.7.3-3.8.2-7.4.5-11.1.5-13.5,0-26.9,0-40.4,0-22.9,0-46.7,0-70,.1-22.4.2-33.3,11.2-33.4,33.8-.1,32.5,0,65.5,0,97.5v7c0,25.2,10.8,36,36,36h15.4c31.9.1,64.9.2,97.3-.1h.5ZM170.4,380.8h0ZM380,169.3h0Z"/>
</svg>