<?xml version="1.0" encoding="UTF-8"?>
<svg id="icon" xmlns="http://www.w3.org/2000/svg" viewBox="0 0 550 550.19">
  <path d="M279.85,550.19c-19.05,0-38.21-.01-57.2-.06-33.78-.08-53.21-19.44-53.3-53.12l-.03-10.95c-.1-33.8-.2-68.75.14-103.15.01-1.02-.03-1.76-.08-2.28-.49-.05-1.17-.08-2.12-.08-32.53.33-65.59.26-97.55.18l-15.35-.03C18.83,380.63.04,361.81.02,326.3v-6.97c-.02-31.97-.04-65.03.07-97.55.1-32.4,19.39-51.89,51.59-52.13,23.39-.17,47.16-.14,70.15-.11,13.44.02,26.88.03,40.33.01,2.29,0,4.62-.12,7.17-.27,0-1.72,0-3.39,0-5.06,0-11.03,0-22.08-.01-33.12-.02-26.13-.05-53.15.19-79.74.14-15.55,4.97-28.5,13.97-37.46C192.46,4.97,205.39.21,220.88.13c32.55-.16,67.92-.18,108.12-.06,31.61.1,51.4,19.7,51.64,51.15.26,33.7.44,73.62-.14,114.18-.03,2.15.1,3.38.22,4.05.63.11,1.77.24,3.64.2,30.72-.52,61.93-.4,92.11-.29,6.56.02,13.12.05,19.68.07,34.65.11,53.75,19.19,53.79,53.72.05,38.9.06,73.08.03,104.51h0c-.05,33.63-19.47,52.98-53.29,53.09-7.64.02-15.29.06-22.93.1-28.73.15-58.45.3-87.73-.39-3.07-.08-4.56.2-5.18.38-.18.65-.46,2.24-.39,5.72.54,28.1.42,56.61.32,84.2-.03,8.41-.07,16.82-.08,25.22-.06,34.91-19.49,54.15-54.72,54.16h-1c-14.87,0-29.96.02-45.13.02ZM167.58,362.19c4.44,0,10.61.61,15.12,5.12,4.69,4.69,5.17,11.25,5.13,15.78-.34,34.28-.24,69.17-.14,102.91l.03,10.95c.06,23.69,11.18,34.75,34.97,34.8,34.08.08,68.75.06,102.27.04h1c25.11,0,36.32-11.06,36.36-35.83.02-8.42.05-16.84.08-25.26.11-27.48.22-55.89-.31-83.77-.12-6.55.45-13.96,5.7-19.18,5.29-5.26,12.75-5.78,18.66-5.63,29,.68,58.59.53,87.2.38,7.66-.04,15.31-.08,22.97-.1,23.83-.08,34.95-11.12,34.98-34.75.03-31.41.02-65.58-.03-104.47-.03-24.39-10.98-35.3-35.49-35.38-6.56-.02-13.13-.04-19.69-.07-30.09-.12-61.2-.24-91.74.29-5.38.08-12.17-.45-17.11-5.37-4.92-4.9-5.5-11.6-5.42-17.5.57-40.39.39-80.19.13-113.79-.16-21.16-12-32.85-33.33-32.92-40.15-.12-75.47-.1-107.97.06-21.47.1-32.92,11.52-33.1,33.02-.23,26.51-.21,53.48-.19,79.56.01,11.06.02,22.11.01,33.17,0,2.77,0,5.53,0,8.55v5.12c0,4.88-3.82,8.91-8.7,9.17-2.02.11-3.9.23-5.7.34-3.82.24-7.44.48-11.11.48-13.47.02-26.93,0-40.39-.01-22.95-.03-46.67-.06-69.99.11-22.38.17-33.29,11.23-33.36,33.82-.11,32.49-.09,65.53-.07,97.48v6.97c.02,25.21,10.79,35.99,36.02,36.05l15.35.03c31.91.08,64.91.15,97.33-.18.16,0,.33,0,.5,0ZM170.44,380.83h0,0ZM380.04,169.29h0Z"/>
</svg>