<?xml version="1.0" encoding="UTF-8"?>
<svg id="icon" xmlns="http://www.w3.org/2000/svg" viewBox="0 0 550 550">
  <path d="M0,381.56c1.08-6.99,1.86-14.04,3.29-20.95,6.36-30.92,21.07-57.37,43.34-79.64C125.13,202.45,203.61,123.91,282.2,45.49c23.74-23.69,52.34-38.12,85.48-43.43C372.52,1.28,377.39.68,382.25,0c7.1,0,14.21,0,21.31,0,.87.2,1.74.44,2.62.59,8.78,1.48,17.72,2.33,26.32,4.52,26.7,6.81,49.93,20.08,69.67,39.32,24.06,23.45,39.27,51.68,45.19,84.81,1.1,6.16,1.77,12.39,2.64,18.59v19.25c-.84,5.99-1.49,12-2.54,17.95-5.77,32.7-20.77,60.64-44.14,84.04-78.03,78.15-156.16,156.2-234.27,234.27-20.18,20.18-43.92,34.38-71.64,41.42-8.72,2.22-17.77,3.14-26.67,4.66-1,.17-1.99.4-2.98.6h-21.31c-2.02-.27-4.03-.55-6.05-.79-32.7-3.89-61.71-16.19-86.5-38.04-27.38-24.13-44.65-54.06-51.24-90.01C1.53,415.1.87,408.97,0,402.87c0-7.1,0-14.21,0-21.31Z"/>
  <path d="M378.68,362.66c.32-.29.67-.58,1-.9,36.13-36.12,72.49-72.02,108.32-108.44,31.84-32.37,44.81-71.5,38.42-116.49-4.47-31.49-18.88-58.19-42.55-79.48-34.09-30.67-74.07-41.13-118.85-32.53-26.91,5.17-49.76,18.32-69.12,37.81-35.35,35.6-70.92,70.99-106.39,106.47-.78.78-1.51,1.61-2.24,2.39,63.86,63.78,127.55,127.4,191.42,191.19Z"/>
  <path d="M171.3,187.36c-.29.26-.64.55-.97.87-36.86,36.86-74.18,73.27-110.43,110.72-32.32,33.39-43.95,74-35.44,119.56,10.42,55.76,54.19,98.38,109.91,107.54,44.16,7.26,83.51-4.2,115.77-35.23,37.89-36.45,74.56-74.16,111.76-111.32.31-.3.53-.69.75-.98-63.78-63.71-127.47-127.34-191.35-191.15Z"/>
  <path d="M91.32,288.82c1.4-2.52,2.32-5.5,4.27-7.47,23.05-23.28,46.22-46.43,69.44-69.54,4.88-4.86,11.47-4.80,15.91-.26,4.28,4.38,4.24,10.91-.53,15.71-23.02,23.14-46.12,46.21-69.23,69.26-3.41,3.4-7.47,4.86-12.22,2.89-4.3-1.78-6.89-5.66-7.64-10.59Z"/>
  <path d="M71.2,332.01c-4.47-.20-7.78-2.25-9.74-6.1-1.91-3.75-1.72-7.68.86-11.04,1.93-2.52,4.23-4.85,6.7-6.86,4.42-3.58,10.37-3.05,14.34.95,3.81,3.84,4.4,9.81.89,14.09-3.44,4.19-6.8,8.83-13.05,8.96Z"/>
</svg>