<?xml version="1.0" encoding="UTF-8"?>
<svg id="icon" xmlns="http://www.w3.org/2000/svg" viewBox="0 0 550 550.24">
  <defs>
    <style>
      .cls-1 {
        fill: #fff;
      }
    </style>
  </defs>
  <g id="u64pvj.tif">
    <g>
      <path d="M325.09,139.37c-7.81-7.75-14.84-14.63-21.78-21.62-10.37-10.45-10.33-22.33.03-32.77,1.21-1.22,2.42-2.44,3.64-3.64,10.22-10.05,22.23-10.17,32.38-.07,11.09,11.03,21.99,22.23,32.63,33.01,18.34-18.39,36.14-36.25,54.44-54.6-5.27-5.11-11.2-10.67-16.93-16.45-9.34-9.42-9.38-21.42-.27-30.92,1.63-1.7,3.32-3.36,5.01-5.01,9.96-9.73,21.92-9.8,31.86.11,28.6,28.49,57.1,57.07,85.64,85.62,3.95,3.95,7.97,7.83,11.82,11.86,8.53,8.92,8.57,21.07.15,30.04-2.06,2.19-4.18,4.32-6.37,6.38-9.03,8.52-21,8.51-29.98-.22-5.99-5.83-11.68-11.95-17.31-17.73-18.11,18.2-35.8,35.98-54.08,54.35,4.64,4.72,9.82,10.02,15.05,15.28,6.06,6.09,12.25,12.04,18.22,18.21,9.47,9.79,9.42,21.74.03,31.47-1.49,1.55-3.02,3.05-4.56,4.55-9.96,9.76-21.98,9.86-31.85.11-7.16-7.07-14.16-14.29-21.57-21.8-23.12,23.2-45.67,45.86-68.26,68.48-47.19,47.24-94.41,94.46-141.62,141.69-13.17,13.17-29.14,19.33-47.67,18.49-4.06-.19-6.81.78-9.49,3.79-9.13,10.21-19.52,18.4-34.29,17.11-5.02-.44-10.22-1.6-14.77-3.68-3.85-1.75-5.86-1.36-8.75,1.56-23.56,23.8-47.31,47.42-70.99,71.1-.46.46-.9.92-1.35,1.38-3.45,3.52-7.41,7.24-12,2.61-4.59-4.64-.78-8.54,2.7-12.01,23.99-23.98,47.92-48.03,72.02-71.9,2.97-2.94,3.99-4.96,1.83-9.19-7.07-13.83-4.55-29.66,5.84-41.25,1-1.12,1.97-2.31,3.15-3.22,6.33-4.88,8.71-10.69,8.54-19.19-.34-16.78,6.78-31.07,18.72-43,67.91-67.83,135.74-135.73,203.63-203.57,1.81-1.81,3.98-3.28,6.55-5.37ZM333.22,148.65c-1.02.93-2,1.76-2.89,2.65-69.08,69.08-138.23,138.1-207.19,207.31-20.45,20.52-18.76,52.59,3.2,71.38,21.35,18.25,53.44,14.03,71.46-10.11-8.31-8.12-16.69-16.37-25.15-24.54-3.32-3.2-5.19-6.75-1.51-10.54,3.66-3.77,7.32-2.2,10.57,1.19,2.97,3.1,6.15,6,9.1,9.12,5.24,5.54,10.38,11.19,14.85,16.01,10.76-10.76,20.26-20.26,30.29-30.29-1.48-1.31-3.49-2.92-5.31-4.72-6.86-6.8-13.96-13.41-20.27-20.69-1.62-1.87-1.94-6.76-.62-8.85,2.24-3.54,6.27-2.95,9.48-.13,1.45,1.27,2.77,2.7,4.12,4.08,7.33,7.49,14.66,14.98,21.31,21.79,10.28-10.1,19.87-19.52,30.1-29.56-8.05-7.91-16.25-16.06-24.55-24.1-3.43-3.33-5.76-7.04-1.78-11.05,4.05-4.08,7.75-1.53,11.02,1.85,8.03,8.31,16.12,16.57,23.94,24.6,10.19-10.24,19.67-19.76,29.45-29.59-1.07-1.15-2.46-2.73-3.95-4.23-6.97-7-13.96-13.98-20.94-20.96-3.09-3.09-4.52-6.66-1.09-10.14,3.35-3.4,6.98-2.39,10.15.77,3.34,3.34,6.74,6.62,10.01,10.03,5.13,5.37,10.16,10.82,14.33,15.27,10.71-10.55,20.26-19.97,29.96-29.52-1.01-1.06-2.32-2.47-3.67-3.83-7.12-7.15-14.27-14.27-21.38-21.43-3.2-3.22-3.86-6.91-.51-10.18,3.22-3.15,6.69-1.97,9.67.89,1.39,1.34,2.75,2.71,4.1,4.1,7.16,7.33,14.31,14.67,20.6,21.13,14.11-14.04,27.42-27.29,40.52-40.33-22.03-22.02-44.47-44.47-67.38-67.37ZM465.05,227.66c-2.77-3.77-4.22-6.35-6.23-8.37-42.58-42.7-85.21-85.34-127.87-127.96-6.6-6.59-9.36-6.28-17.04,1.45-7.11,7.15-7.26,9.94-.64,16.56,42.47,42.51,84.96,85,127.45,127.49,3.07,3.07,6.56,6.96,11,3.77,4.79-3.45,8.6-8.24,13.34-12.95ZM478.68,114.02c-14.27-14.42-28.4-28.7-41.59-42.02-17.66,17.61-35.5,35.4-52.64,52.49,13.6,13.76,27.73,28.04,41.64,42.11,17.56-17.56,35.28-35.28,52.59-52.59ZM429.69,12.06c-3.13,2.45-6.11,4.38-8.6,6.81-7.62,7.4-7.59,10.06-.22,17.43,10.01,10.03,20.05,20.02,30.07,30.04,21.1,21.1,42.18,42.22,63.29,63.3,6.83,6.82,9.63,6.79,16.55-.04,1.07-1.06,2.13-2.12,3.14-3.24,4.15-4.6,4.28-8.42-.19-12.9-32.27-32.4-64.6-64.74-97-97.01-1.7-1.69-4.15-2.64-7.02-4.4ZM100.57,416.7c-10,7.39-14.87,16.41-11.97,28.15,2.22,9,8.38,14.99,17.53,16.85,11.51,2.34,20.31-2.42,27.38-12.11-15.08-6.75-25.85-17.59-32.94-32.89Z"/>
      <path class="cls-1" d="M333.22,148.65c22.91,22.91,45.36,45.35,67.38,67.37-13.11,13.04-26.42,26.29-40.52,40.33-6.29-6.45-13.44-13.8-20.6-21.13-1.35-1.38-2.71-2.76-4.1-4.1-2.99-2.86-6.45-4.04-9.67-.89-3.35,3.27-2.69,6.96.51,10.18,7.11,7.16,14.26,14.28,21.38,21.43,1.35,1.36,2.65,2.77,3.67,3.83-9.7,9.56-19.25,18.97-29.96,29.52-4.16-4.45-9.2-9.9-14.33-15.27-3.26-3.41-6.66-6.7-10.01-10.03-3.17-3.16-6.8-4.17-10.15-.77-3.43,3.48-2,7.05,1.09,10.14,6.98,6.99,13.98,13.96,20.94,20.96,1.48,1.49,2.88,3.08,3.95,4.23-9.78,9.83-19.26,19.35-29.45,29.59-7.82-8.03-15.9-16.29-23.94-24.6-3.27-3.38-6.97-5.93-11.02-1.85-3.98,4.01-1.65,7.72,1.78,11.05,8.3,8.04,16.5,16.19,24.55,24.1-10.22,10.04-19.82,19.47-30.1,29.56-6.65-6.8-13.97-14.3-21.31-21.79-1.35-1.38-2.67-2.8-4.12-4.08-3.2-2.82-7.24-3.42-9.48.13-1.32,2.09-1,6.98.62,8.85,6.31,7.28,13.41,13.89,20.27,20.69,1.82,1.8,3.83,3.41,5.31,4.72-10.03,10.03-19.53,19.53-30.29,30.29-4.47-4.83-9.61-10.47-14.85-16.01-2.95-3.12-6.12-6.02-9.1-9.12-3.25-3.38-6.9-4.96-10.57-1.19-3.68,3.79-1.81,7.34,1.51,10.54,8.46,8.17,16.85,16.43,25.15,24.54-18.01,24.15-50.11,28.37-71.46,10.11-21.97-18.78-23.65-50.85-3.2-71.38,68.96-69.21,138.11-138.22,207.19-207.31.9-.9,1.87-1.72,2.89-2.65Z"/>
      <path class="cls-1" d="M465.05,227.66c-4.74,4.71-8.55,9.5-13.34,12.95-4.44,3.19-7.92-.69-11-3.77-42.49-42.49-84.98-84.98-127.45-127.49-6.62-6.63-6.47-9.41.64-16.56,7.69-7.73,10.44-8.05,17.04-1.45,42.66,42.62,85.29,85.26,127.87,127.96,2.01,2.02,3.46,4.6,6.23,8.37Z"/>
      <path class="cls-1" d="M478.68,114.02c-17.31,17.31-35.03,35.03-52.59,52.59-13.91-14.07-28.03-28.35-41.64-42.11,17.14-17.09,34.98-34.88,52.64-52.49,13.19,13.32,27.32,27.6,41.59,42.02Z"/>
      <path class="cls-1" d="M429.69,12.06c2.87,1.76,5.32,2.7,7.02,4.4,32.39,32.27,64.73,64.61,97,97.01,4.47,4.48,4.34,8.3.19,12.9-1.01,1.12-2.07,2.18-3.14,3.24-6.91,6.83-9.71,6.87-16.55.04-21.11-21.09-42.19-42.2-63.29-63.3-10.02-10.02-20.06-20.01-30.07-30.04-7.36-7.37-7.39-10.03.22-17.43,2.5-2.43,5.47-4.36,8.6-6.81Z"/>
      <path class="cls-1" d="M100.57,416.7c7.08,15.3,17.86,26.14,32.94,32.89-7.07,9.7-15.87,14.46-27.38,12.11-9.15-1.86-15.31-7.85-17.53-16.85-2.9-11.74,1.97-20.76,11.97-28.15Z"/>
    </g>
  </g>
</svg>