<?xml version="1.0" encoding="UTF-8"?>
<svg id="icon-syringe" xmlns="http://www.w3.org/2000/svg" version="1.1" viewBox="0 0 550 550">
      <path d="M543.6,104.9c-3.9-4-7.9-7.9-11.8-11.9-28.5-28.5-57-57.1-85.6-85.6-9.9-9.9-21.9-9.8-31.9-.1-1.7,1.7-3.4,3.3-5,5-9.1,9.5-9.1,21.5.3,30.9,5.7,5.8,11.7,11.3,16.9,16.5-18.3,18.3-36.1,36.2-54.4,54.6-10.6-10.8-21.5-22-32.6-33-10.2-10.1-22.2-10-32.4,0-1.2,1.2-2.4,2.4-3.6,3.6-10.4,10.4-10.4,22.3,0,32.8,6.9,7,14,13.9,21.8,21.6-2.6,2.1-4.7,3.6-6.5,5.4-67.9,67.9-135.7,135.8-203.6,203.6-11.9,11.9-19.1,26.2-18.7,43,.2,8.5-2.2,14.3-8.5,19.2-1.2.9-2.2,2.1-3.2,3.2-10.4,11.6-12.9,27.4-5.8,41.2,2.2,4.2,1.1,6.2-1.8,9.2-24.1,23.9-48,47.9-72,71.9-3.5,3.5-7.3,7.4-2.7,12,4.6,4.6,8.6.9,12-2.6.4-.5.9-.9,1.3-1.4,23.7-23.7,47.4-47.3,71-71.1,2.9-2.9,4.9-3.3,8.8-1.6,4.6,2.1,9.8,3.2,14.8,3.7,14.8,1.3,25.1-6.9,34.3-17.1,2.7-3,5.4-4,9.5-3.8,18.5.8,34.5-5.3,47.7-18.5,47.2-47.2,94.4-94.4,141.6-141.7,22.6-22.6,45.1-45.3,68.3-68.5,7.4,7.5,14.4,14.7,21.6,21.8,9.9,9.8,21.9,9.7,31.9-.1,1.5-1.5,3.1-3,4.6-4.6,9.4-9.7,9.4-21.7,0-31.5-6-6.2-12.2-12.1-18.2-18.2-5.2-5.3-10.4-10.6-15-15.3,18.3-18.4,36-36.1,54.1-54.3,5.6,5.8,11.3,11.9,17.3,17.7,9,8.7,21,8.7,30,.2,2.2-2.1,4.3-4.2,6.4-6.4,8.4-9,8.4-21.1-.2-30h0ZM106.1,461.7c-9.1-1.9-15.3-7.9-17.5-16.9-2.9-11.7,2-20.8,12-28.1,7.1,15.3,17.9,26.1,32.9,32.9-7.1,9.7-15.9,14.5-27.4,12.1ZM198,421.1c-25,24-50.3,27.1-71.7,8.9-22-18.8-23.7-50.9-3.2-71.4,69-69.2,138.1-138.2,207.2-207.3.9-.9,1.9-1.7,2.9-2.6,22.9,22.9,45.4,45.4,67.4,67.4l-202.6,205.1h0ZM458.8,219.3c2,2,3.5,4.6,6.2,8.4-4.7,4.7-8.6,9.5-13.3,12.9-4.4,3.2-7.9-.7-11-3.8-42.5-42.5-85-85-127.5-127.5-6.6-6.6-6.5-9.4.6-16.6,7.7-7.7,10.4-8,17-1.4,42.7,42.6,85.3,85.3,127.9,128h0ZM426.1,166.6c-13.9-14.1-28-28.4-41.6-42.1,17.1-17.1,35-34.9,52.6-52.5,13.2,13.3,27.3,27.6,41.6,42-17.3,17.3-35,35-52.6,52.6h0ZM533.9,126.4c-1,1.1-2.1,2.2-3.1,3.2-6.9,6.8-9.7,6.9-16.5,0-21.1-21.1-42.2-42.2-63.3-63.3-10-10-20.1-20-30.1-30-7.4-7.4-7.4-10,.2-17.4,2.5-2.4,5.5-4.4,8.6-6.8,2.9,1.8,5.3,2.7,7,4.4,32.4,32.3,64.7,64.6,97,97,4.5,4.5,4.3,8.3.2,12.9h0Z"/>
</svg>