<?xml version="1.0" encoding="UTF-8"?>
<svg id="icon-discontinued" xmlns="http://www.w3.org/2000/svg" viewBox="0 0 550 550.04">
    <path d="M550,274.85c0,152.33-122.93,275.21-275.28,275.19C123.34,550.02-.35,426.14,0,274.91.36,123.24,123.65.04,275.1,0c151.55-.04,274.91,123.3,274.9,274.85ZM159.62,106.9c94.68,94.72,189.18,189.26,283.59,283.71,50.34-67.05,53.98-180.33-21.13-257.79-76.62-79.01-192.31-77.76-262.46-25.92ZM107.46,158.76c-55.14,75.19-53.11,197.66,36.05,272.9,85.51,72.15,196.32,52.88,247.27,10.63-94.3-94.37-188.67-188.8-283.32-283.53Z"/>
</svg>