<?xml version="1.0" encoding="UTF-8"?>
<svg id="icon" xmlns="http://www.w3.org/2000/svg" viewBox="0 0 550 456.7">
  <g id="oU3jFk">
    <path d="M550,59.32c.15,14.71-4.49,27.45-13.44,39-46.75,60.31-93.36,120.71-140.07,181.05-40.18,51.91-80.31,103.86-120.69,155.61-20.7,26.52-62.54,29.16-86.57,5.7-13.6-13.29-25.2-28.39-37.63-42.75-17.67-20.44-35.17-41.03-52.74-61.56-19.47-22.76-38.92-45.54-58.41-68.29-8.54-9.97-17.03-19.98-25.75-29.78-22.14-24.89-18.89-65.5,7.2-86.18,11.09-8.8,23.63-13.94,36.85-13.28,22.1-.4,37.67,9.38,50.72,24.82,23.21,27.48,46.72,54.71,70.12,82.03,14.36,16.77,28.73,33.54,43.08,50.33,4.45,5.21,4.73,5.2,9.05-.38,31.77-41.03,63.54-82.06,95.31-123.09,37.81-48.85,75.73-97.61,113.36-146.58C453.31,9.14,469.85-.13,491.12,0c32.57.2,58.55,26.75,58.88,59.32Z"/>
  </g>
</svg>