<?xml version="1.0" encoding="UTF-8"?>
<svg xmlns="http://www.w3.org/2000/svg" viewBox="0 0 496.2 550" id="icon-shortage">
  <path d="M389.27,178.63c-2.9-3.94-3.15-6.46-.16-10.48,34.41-46.25,68.62-92.64,102.88-139,1.37-1.85,2.62-3.79,4.21-6.1-2.43-.64-4-1.17-5.61-1.46-45.74-8.01-91.59-7.24-137.36-.86-35.43,4.94-70.72,10.94-106.07,16.44-41.24,6.42-82.57,8.89-124.13,3.09-22.35-3.12-44.17-8.34-65.37-16.03v-2.31C57.66,9.82,47.84,0,35.73,0h-13.8C9.82,0,0,9.82,0,21.93v506.14c0,12.11,9.82,21.93,21.93,21.93h13.8c12.11,0,21.93-9.82,21.93-21.93v-201.39c.41.12.82.24,1.22.37,27.43,9.06,55.51,15.18,84.2,18.47,38.27,4.4,76.35,2.02,114.27-3.8,44.84-6.88,89.53-14.93,134.5-20.71,20.36-2.62,41.29-1.51,61.94-1.05,13.75.31,27.46,2.48,41.75,3.87-1.06-1.55-1.86-2.78-2.72-3.96-34.48-47.11-68.91-94.26-103.55-141.25Z"/>
</svg>