<?xml version="1.0" encoding="UTF-8"?><svg id="t" xmlns="http://www.w3.org/2000/svg" viewBox="0 0 100 100"><g id="u"><path d="M22.72,62.92l-17.26,9.98v-1.85c0-7.67,2.06-14.85,5.66-21.04-3.6-6.19-5.66-13.37-5.66-21.04v-1.85l17.26,9.97,2.22,1.27,1.36.79,4.25,2.46,11.38,6.57,3.16,1.82h0s0,0,0,0l-14.54,8.39h0s0,0,0,0l-5.61,3.25-2.22,1.27ZM52.48,45.74l14.52-8.39h0s5.61-3.23,5.61-3.23l2.24-1.3,17.23-9.93-1.6-.92c-6.62-3.85-13.88-5.66-21.02-5.66-3.58-6.19-8.76-11.56-15.41-15.38l-1.58-.93v45.74h0s0,0,0,0ZM72.61,65.88l-5.61-3.23-14.52-8.39v45.74l1.58-.92c6.65-3.83,11.83-9.2,15.39-15.37,7.16,0,14.42-1.81,21.04-5.65l1.63-.93-17.26-9.95-2.24-1.3ZM33.02,62.65s0,0,0,0h0l-5.64,3.25-2.22,1.27-17.26,9.95,1.63.93c6.62,3.85,13.88,5.65,21.04,5.65,3.56,6.17,8.74,11.54,15.38,15.37l1.59.92v-45.74l-2.48,1.43-12.05,6.96ZM94.54,27.13l-17.23,9.95-2.22,1.27-2.94,1.7-2.67,1.55h0s0,0,0,0l-10.45,6.04-1.54.89-2.53,1.46h0s0,0,0,0l14.53,8.39,2.45,1.41.24.14,2.94,1.7,2.22,1.27,17.23,9.95v-1.83c0-7.67-2.06-14.85-5.66-21.04,3.6-6.19,5.66-13.37,5.66-21.04v-1.83ZM30.55,16.31c-7.14,0-14.4,1.81-21.02,5.66l-1.61.92,17.24,9.93,2.22,1.27,5.64,3.25,14.52,8.39V0l-1.59.93c-6.64,3.82-11.82,9.19-15.41,15.38Z" fill="#c5c5c5"/></g><g id="v"><path d="M67,37.35l-14.52,8.39v-23.28c3.31,2.04,6.4,4.55,9.09,7.49,2.04,2.24,3.85,4.69,5.43,7.4ZM30.55,41.61l-5.61-3.25c.08,3.91.72,7.82,1.93,11.64.91,2.88,2.14,5.68,3.68,8.39l14.54-8.39-14.54-8.39ZM54.93,50l2.53,1.46,12,6.93h0l2.67,1.55,2.94,1.69c-.09-3.9-.72-7.81-1.93-11.63-.91-2.88-2.14-5.68-3.69-8.39l-12,6.93-2.53,1.46ZM38.43,70.05c2.72,2.97,5.8,5.47,9.11,7.51v-23.3l-14.52,8.39c1.57,2.71,3.4,5.16,5.41,7.4ZM25.17,32.83l2.22,1.27,5.63,3.25,14.52,8.39v-25.85c-5.32-2.34-11.13-3.58-16.99-3.58-2.92,5.08-4.75,10.72-5.38,16.52ZM67,62.65l-14.52-8.39v25.85c5.33,2.37,11.13,3.6,16.97,3.6,2.94-5.1,4.77-10.74,5.41-16.54l-2.25-1.29-5.61-3.23Z" fill="#999"/></g></svg>