<?xml version="1.0" encoding="UTF-8"?><svg id="f" xmlns="http://www.w3.org/2000/svg" viewBox="0 0 100 100"><g id="g"><rect x="33.22" y="33.22" width="33.56" height="33.56" transform="translate(0 100) rotate(-90)" fill="#ccc"/></g><g id="h"><path d="M77.1,33.22h-10.32v-10.32h10.32v10.32ZM33.22,22.9h-10.32v10.32h10.32v-10.32ZM77.1,66.78h-10.32v10.32h10.32v-10.32ZM33.22,66.78h-10.32v10.32h10.32v-10.32ZM85.36,14.64h-8.25v8.25h8.25v-8.25ZM88.33,50l-7.3-7.3-7.3,7.3,7.3,7.3,7.3-7.3ZM100,50l-5.84-5.84-5.84,5.84,5.84,5.84,5.84-5.84ZM50,11.67l-7.3,7.3,7.3,7.3,7.3-7.3-7.3-7.3ZM50,0l-5.84,5.84,5.84,5.84,5.84-5.84-5.84-5.84ZM50,88.33l7.3-7.3-7.3-7.3-7.3,7.3,7.3,7.3ZM50,100l5.84-5.84-5.84-5.84-5.84,5.84,5.84,5.84ZM11.67,50l7.3,7.3,7.3-7.3-7.3-7.3-7.3,7.3ZM0,50l5.84,5.84,5.84-5.84-5.84-5.84-5.84,5.84ZM22.9,14.64h-8.25v8.25h8.25v-8.25ZM85.36,77.1h-8.25v8.25h8.25v-8.25ZM22.9,77.1h-8.25v8.25h8.25v-8.25ZM26.27,50l23.73,23.73,23.73-23.73-23.73-23.73-23.73,23.73Z" fill="#999"/></g></svg>