<?xml version="1.0" encoding="UTF-8"?><svg id="k" xmlns="http://www.w3.org/2000/svg" viewBox="0 0 100 100"><g id="l"><path d="M99.48,47.4h-32.37c-.38,0-.69-.27-.76-.64,0,0,0,0,0-.01-.07-.37.11-.74.46-.89l29.9-12.39c.27-.11.39-.41.28-.68l-1.59-3.85c-.11-.27-.41-.39-.68-.28l-29.9,12.39c-.35.14-.74.01-.95-.3,0,0,0,0,0-.01-.21-.31-.18-.73.09-1l22.89-22.89c.2-.2.2-.53,0-.74l-2.95-2.95c-.2-.2-.53-.2-.74,0l-22.89,22.89c-.27.27-.68.3-1,.09h-.01c-.31-.22-.44-.61-.3-.96l12.39-29.9c.11-.27-.02-.57-.28-.68l-3.85-1.59c-.27-.11-.57.02-.68.28l-12.39,29.9c-.14.35-.52.54-.89.46,0,0,0,0-.01,0-.37-.07-.64-.39-.64-.76V.52C52.6.23,52.37,0,52.08,0h-4.17c-.29,0-.52.23-.52.52v32.37c0,.38-.27.69-.64.76,0,0,0,0-.01,0-.37.07-.74-.11-.89-.46L33.47,3.29c-.11-.27-.41-.39-.68-.28l-3.85,1.59c-.27.11-.39.41-.28.68l12.39,29.9c.14.35.01.74-.3.95h-.01c-.31.22-.73.19-1-.08L16.85,13.17c-.2-.2-.53-.2-.74,0l-2.95,2.95c-.2.2-.2.53,0,.74l22.89,22.89c.27.27.3.68.09,1,0,0,0,0,0,.01-.21.31-.6.44-.95.3L5.28,28.66c-.27-.11-.57.02-.68.28l-1.59,3.85c-.11.27.02.57.28.68l29.9,12.39c.35.14.54.52.46.89,0,0,0,0,0,.01-.07.37-.39.64-.76.64H.52c-.29,0-.52.23-.52.52v4.17c0,.29.23.52.52.52h32.37c.38,0,.69.27.76.64,0,0,0,0,0,.01.07.37-.11.74-.46.89l-29.9,12.39c-.27.11-.39.41-.28.68l1.59,3.85c.11.27.41.39.68.28l29.9-12.39c.35-.14.74-.01.95.3,0,0,0,0,0,.01.21.31.18.73-.09,1l-22.89,22.89c-.2.2-.2.53,0,.74l2.95,2.95c.2.2.53.2.74,0l22.89-22.89c.27-.27.68-.3,1-.09h.01c.31.22.44.61.3.96l-12.39,29.9c-.11.27.02.57.28.68l3.85,1.59c.27.11.57-.02.68-.28l12.39-29.9c.14-.35.52-.54.89-.46,0,0,0,0,.01,0,.37.07.64.39.64.76v32.37c0,.29.23.52.52.52h4.17c.29,0,.52-.23.52-.52v-32.37c0-.38.27-.69.64-.76,0,0,0,0,.01,0,.37-.07.74.11.89.46l12.39,29.9c.11.27.41.39.68.28l3.85-1.59c.27-.11.39-.41.28-.68l-12.39-29.9c-.14-.35-.01-.74.3-.95,0,0,0,0,.01,0,.31-.21.73-.18,1,.09l22.89,22.89c.2.2.53.2.74,0l2.95-2.95c.2-.2.2-.53,0-.74l-22.89-22.89c-.27-.27-.3-.68-.09-1,0,0,0,0,0-.01.21-.31.6-.44.95-.3l29.9,12.39c.27.11.57-.02.68-.28l1.59-3.85c.11-.27-.02-.57-.28-.68l-29.9-12.39c-.35-.14-.54-.52-.46-.89,0,0,0,0,0-.01.07-.37.39-.64.76-.64h32.37c.29,0,.52-.23.52-.52v-4.17c0-.29-.23-.52-.52-.52Z" fill="#999"/></g></svg>