<?xml version="1.0" encoding="UTF-8"?><svg id="w" xmlns="http://www.w3.org/2000/svg" viewBox="0 0 100 100"><g id="x"><path d="M20.33,48.61L6.69,24.99h27.29l.8,1.37,5.59,9.69.72,1.25,1.82,3.16,4.71,8.15h-27.27ZM78.07,51.39h-25.68l4.71,8.15,1.81,3.15.73,1.26,5.58,9.68.8,1.37h27.29l-13.64-23.61h-1.59ZM57.25,65.32l-.72-1.25-1.02-1.76-.8-1.39-3.44-5.95-1.27-2.21-1.27,2.21-3.44,5.95-.8,1.39-1.02,1.76-.72,1.25-5.59,9.68-.8,1.39,13.64,23.61,13.64-23.63-.8-1.37-5.59-9.68ZM41.09,62.69l1.81-3.15,4.71-8.15h-27.27l-13.64,23.61h27.29l.79-1.36,5.59-9.69.73-1.26ZM65.22,26.37l-5.58,9.68-.72,1.25-1.82,3.16-4.71,8.15h27.27l13.65-23.63h-27.29l-.81,1.39ZM36.36,23.61l.79,1.37,5.6,9.69.72,1.25,1.82,3.15,4.71,8.16,4.71-8.16,1.82-3.15.72-1.25,5.6-9.69.79-1.36L50,0l-13.64,23.61Z" fill="#c5c5c5"/></g></svg>