<?xml version="1.0" encoding="UTF-8"?><svg id="a" xmlns="http://www.w3.org/2000/svg" viewBox="0 0 100 100"><g id="b"><path d="M33.33,33.33v33.34h33.34v-33.34h-33.34ZM63.42,63.42h-26.84v-26.84h26.84v26.84ZM66.67,33.33v16.67h16.66v-16.67h-16.66ZM81.71,48.37h-13.42v-13.41h13.42v13.41ZM66.67,50v16.67h16.66v-16.67h-16.66ZM81.71,65.04h-13.42v-13.42h13.42v13.42ZM83.33,33.33v16.67h16.67v-16.67h-16.67ZM98.38,48.37h-13.42v-13.41h13.42v13.41ZM83.33,50v16.67h16.67v-16.67h-16.67ZM98.38,65.04h-13.42v-13.42h13.42v13.42ZM66.67,0v16.67h16.66V0h-16.66ZM81.71,15.04h-13.42V1.62h13.42v13.42ZM66.67,16.67v16.66h16.66v-16.66h-16.66ZM81.71,31.71h-13.42v-13.42h13.42v13.42ZM83.33,0v16.67h16.67V0h-16.67ZM98.38,15.04h-13.42V1.62h13.42v13.42ZM83.33,16.67v16.66h16.67v-16.66h-16.67ZM98.38,31.71h-13.42v-13.42h13.42v13.42ZM50,0v16.67h16.67V0h-16.67ZM65.04,15.04h-13.42V1.62h13.42v13.42ZM50,16.67v16.66h16.67v-16.66h-16.67ZM65.04,31.71h-13.42v-13.42h13.42v13.42ZM0,0v16.67h50V0H0ZM15.04,15.04H1.62V1.62h13.42v13.42ZM31.71,15.04h-13.42V1.62h13.42v13.42ZM48.38,15.04h-13.42V1.62h13.42v13.42ZM0,16.67v16.66h50v-16.66H0ZM15.04,31.71H1.62v-13.42h13.42v13.42ZM31.71,31.71h-13.42v-13.42h13.42v13.42ZM48.38,31.71h-13.42v-13.42h13.42v13.42ZM66.67,66.67v16.66h16.66v-16.66h-16.66ZM81.71,81.71h-13.42v-13.42h13.42v13.42ZM66.67,83.33v16.67h16.66v-16.67h-16.66ZM81.71,98.37h-13.42v-13.41h13.42v13.41ZM83.33,66.67v16.66h16.67v-16.66h-16.67ZM98.38,81.71h-13.42v-13.42h13.42v13.42ZM83.33,83.33v16.67h16.67v-16.67h-16.67ZM98.38,98.37h-13.42v-13.41h13.42v13.41ZM33.33,66.67v16.66h16.67v-16.66h-16.67ZM48.38,81.71h-13.42v-13.42h13.42v13.42ZM33.33,83.33v16.67h16.67v-16.67h-16.67ZM48.38,98.37h-13.42v-13.41h13.42v13.41ZM50,66.67v16.66h16.67v-16.66h-16.67ZM65.04,81.71h-13.42v-13.42h13.42v13.42ZM50,83.33v16.67h16.67v-16.67h-16.67ZM65.04,98.37h-13.42v-13.41h13.42v13.41ZM0,66.67v16.66h16.67v-16.66H0ZM15.04,81.71H1.62v-13.42h13.42v13.42ZM0,83.33v16.67h33.33v-16.67H0ZM15.04,98.37H1.62v-13.41h13.42v13.41ZM31.71,98.37h-13.42v-13.41h13.42v13.41ZM0,33.33v16.67h33.33v-16.67H0ZM15.04,48.37H1.62v-13.41h13.42v13.41ZM31.71,48.37h-13.42v-13.41h13.42v13.41ZM0,50v16.67h16.67v-16.67H0ZM15.04,65.04H1.62v-13.42h13.42v13.42ZM16.67,50v33.33h16.66v-33.33h-16.66ZM31.71,81.71h-13.42v-13.42h13.42v13.42ZM31.71,65.04h-13.42v-13.42h13.42v13.42Z" fill="#c5c5c5"/></g><g id="c"><path d="M81.71,34.96v13.41h-13.42v-13.41h13.42ZM84.96,51.62v13.42h13.42v-13.42h-13.42ZM68.29,1.62v13.42h13.42V1.62h-13.42ZM84.96,18.29v13.42h13.42v-13.42h-13.42ZM51.62,18.29v13.42h13.42v-13.42h-13.42ZM1.62,1.62v13.42h13.42V1.62H1.62ZM34.96,1.62v13.42h13.42V1.62h-13.42ZM18.29,18.29v13.42h13.42v-13.42h-13.42ZM68.29,68.29v13.42h13.42v-13.42h-13.42ZM84.96,84.96v13.41h13.42v-13.41h-13.42ZM34.96,68.29v13.42h13.42v-13.42h-13.42ZM51.62,84.96v13.41h13.42v-13.41h-13.42ZM1.62,68.29v13.42h13.42v-13.42H1.62ZM18.29,84.96v13.41h13.42v-13.41h-13.42ZM1.62,34.96v13.41h13.42v-13.41H1.62ZM18.29,51.62v13.42h13.42v-13.42h-13.42Z" fill="#999"/></g></svg>