<?xml version="1.0" encoding="UTF-8"?><svg id="r" xmlns="http://www.w3.org/2000/svg" viewBox="0 0 100 100"><g id="s"><path d="M50,50l-6.84-40.37c-.26-.75-.41-1.56-.41-2.39,0-4,3.24-7.24,7.24-7.24s7.24,3.24,7.24,7.24c0,.84-.14,1.64-.41,2.39l-6.84,40.37ZM50,50l-6.84,40.37c-.26.75-.41,1.56-.41,2.39,0,4,3.24,7.24,7.24,7.24s7.24-3.24,7.24-7.24c0-.84-.14-1.64-.41-2.39l-6.84-40.37ZM83.38,26.3c.72-.34,1.39-.81,1.98-1.41,2.83-2.83,2.83-7.42,0-10.24-2.83-2.83-7.42-2.83-10.24,0-.59.59-1.06,1.26-1.41,1.98l-23.71,33.38,33.38-23.71ZM50,50l-33.38,23.71c-.72.34-1.39.81-1.98,1.41-2.83,2.83-2.83,7.42,0,10.24,2.83,2.83,7.42,2.83,10.24,0,.59-.59,1.06-1.26,1.41-1.98l23.71-33.38ZM26.3,16.62c-.34-.72-.81-1.39-1.41-1.98-2.83-2.83-7.42-2.83-10.24,0-2.83,2.83-2.83,7.42,0,10.24.59.59,1.26,1.06,1.98,1.41l33.38,23.71L26.3,16.62ZM50,50l23.71,33.38c.34.72.81,1.39,1.41,1.98,2.83,2.83,7.42,2.83,10.24,0,2.83-2.83,2.83-7.42,0-10.24-.59-.59-1.26-1.06-1.98-1.41l-33.38-23.71ZM9.64,43.16c-.75-.26-1.56-.41-2.39-.41-4,0-7.24,3.24-7.24,7.24s3.24,7.24,7.24,7.24c.84,0,1.64-.14,2.39-.41l40.37-6.84-40.37-6.84ZM50,50l40.37,6.84c.75.26,1.56.41,2.39.41,4,0,7.24-3.24,7.24-7.24s-3.24-7.24-7.24-7.24c-.84,0-1.64.14-2.39.41l-40.37,6.84ZM32.71,7.22c-2.07.84-3.07,3.19-2.24,5.27.84,2.07,3.19,3.07,5.27,2.24s3.07-3.19,2.24-5.27c-.84-2.07-3.19-3.07-5.27-2.24ZM37.95,20.19c-.94.38-1.4,1.45-1.02,2.4s1.45,1.4,2.4,1.02,1.4-1.45,1.02-2.4-1.45-1.4-2.4-1.02ZM32.71,7.22c-2.07.84-3.07,3.19-2.24,5.27.84,2.07,3.19,3.07,5.27,2.24s3.07-3.19,2.24-5.27c-.84-2.07-3.19-3.07-5.27-2.24ZM37.95,20.19c-.94.38-1.4,1.45-1.02,2.4s1.45,1.4,2.4,1.02,1.4-1.45,1.02-2.4-1.45-1.4-2.4-1.02ZM37.32,92.19c.84-2.07-.16-4.43-2.24-5.27-2.07-.84-4.43.16-5.27,2.24-.84,2.07.16,4.43,2.24,5.27s4.43-.16,5.27-2.24ZM39.69,80.44c.38-.94-.07-2.01-1.02-2.4s-2.01.07-2.4,1.02.07,2.01,1.02,2.4,2.01-.07,2.4-1.02ZM62.02,9.46c-.84,2.07.16,4.43,2.24,5.27s4.43-.16,5.27-2.24-.16-4.43-2.24-5.27-4.43.16-5.27,2.24ZM59.65,21.21c-.38.94.07,2.01,1.02,2.4s2.01-.07,2.4-1.02-.07-2.01-1.02-2.4-2.01.07-2.4,1.02ZM67.95,94.43c2.07-.84,3.07-3.19,2.24-5.27-.84-2.07-3.19-3.07-5.27-2.24-2.07.84-3.07,3.19-2.24,5.27s3.19,3.07,5.27,2.24ZM62.71,81.46c.94-.38,1.4-1.45,1.02-2.4s-1.45-1.4-2.4-1.02-1.4,1.45-1.02,2.4c.38.94,1.45,1.4,2.4,1.02ZM93.6,33.54c-.84-2.07-3.19-3.07-5.27-2.24s-3.07,3.19-2.24,5.27,3.19,3.07,5.27,2.24c2.07-.84,3.07-3.19,2.24-5.27ZM80.63,38.78c-.38-.94-1.45-1.4-2.4-1.02s-1.4,1.45-1.02,2.4,1.45,1.4,2.4,1.02,1.4-1.45,1.02-2.4ZM8.63,38.14c2.07.84,4.43-.16,5.27-2.24.84-2.07-.16-4.43-2.24-5.27s-4.43.16-5.27,2.24c-.84,2.07.16,4.43,2.24,5.27ZM20.39,40.51c.94.38,2.01-.07,2.4-1.02s-.07-2.01-1.02-2.4-2.01.07-2.4,1.02.07,2.01,1.02,2.4ZM91.37,62.85c-2.07-.84-4.43.16-5.27,2.24-.84,2.07.16,4.43,2.24,5.27s4.43-.16,5.27-2.24-.16-4.43-2.24-5.27ZM79.62,60.48c-.94-.38-2.01.07-2.4,1.02s.07,2.01,1.02,2.4,2.01-.07,2.4-1.02-.07-2.01-1.02-2.4ZM6.4,68.78c.84,2.07,3.19,3.07,5.27,2.24,2.07-.84,3.07-3.19,2.24-5.27s-3.19-3.07-5.27-2.24-3.07,3.19-2.24,5.27ZM19.37,63.53c.38.94,1.45,1.4,2.4,1.02s1.4-1.45,1.02-2.4-1.45-1.4-2.4-1.02-1.4,1.45-1.02,2.4Z" fill="#999"/></g></svg>