<?xml version="1.0" encoding="UTF-8"?><svg id="i" xmlns="http://www.w3.org/2000/svg" viewBox="0 0 100 100"><g id="j"><path d="M86.32,50c0,3.14-2.55,5.69-5.69,5.69s-5.69-2.55-5.69-5.69,2.55-5.69,5.69-5.69,5.69,2.55,5.69,5.69ZM65.97,36.81c-2.8,0-5.07,2.27-5.07,5.07s2.27,5.07,5.07,5.07,5.07-2.27,5.07-5.07-2.27-5.07-5.07-5.07ZM57.92,28.75c-2.8,0-5.07,2.27-5.07,5.07s2.27,5.07,5.07,5.07,5.07-2.27,5.07-5.07-2.27-5.07-5.07-5.07ZM13.68,50c0,3.14,2.55,5.69,5.69,5.69,3.14,0,5.69-2.55,5.69-5.69s-2.55-5.69-5.69-5.69-5.69,2.55-5.69,5.69ZM28.96,41.87c0,2.8,2.27,5.07,5.07,5.07,2.8,0,5.07-2.27,5.07-5.07,0-2.8-2.27-5.07-5.07-5.07-2.8,0-5.07,2.27-5.07,5.07ZM37.01,33.82c0,2.8,2.27,5.07,5.07,5.07,2.8,0,5.07-2.27,5.07-5.07,0-2.8-2.27-5.07-5.07-5.07-2.8,0-5.07,2.27-5.07,5.07ZM50,14.17c-3.03,0-5.49,2.46-5.49,5.49s2.46,5.49,5.49,5.49,5.49-2.46,5.49-5.49-2.46-5.49-5.49-5.49ZM50,0c-1.57,0-2.85,1.27-2.85,2.85s1.27,2.85,2.85,2.85,2.85-1.27,2.85-2.85-1.27-2.85-2.85-2.85ZM98.68,50c0-1.69-1.37-3.06-3.06-3.06s-3.06,1.37-3.06,3.06,1.37,3.06,3.06,3.06,3.06-1.37,3.06-3.06ZM71.04,58.12c0-2.8-2.27-5.07-5.07-5.07s-5.07,2.27-5.07,5.07,2.27,5.07,5.07,5.07,5.07-2.27,5.07-5.07ZM62.99,66.18c0-2.8-2.27-5.07-5.07-5.07s-5.07,2.27-5.07,5.07,2.27,5.07,5.07,5.07,5.07-2.27,5.07-5.07ZM4.37,53.06c1.69,0,3.06-1.37,3.06-3.06s-1.37-3.06-3.06-3.06c-1.69,0-3.06,1.37-3.06,3.06s1.37,3.06,3.06,3.06ZM34.03,63.19c2.8,0,5.07-2.27,5.07-5.07,0-2.8-2.27-5.07-5.07-5.07-2.8,0-5.07,2.27-5.07,5.07s2.27,5.07,5.07,5.07ZM42.08,71.25c2.8,0,5.07-2.27,5.07-5.07,0-2.8-2.27-5.07-5.07-5.07-2.8,0-5.07,2.27-5.07,5.07,0,2.8,2.27,5.07,5.07,5.07ZM55.49,80.35c0-3.03-2.46-5.49-5.49-5.49s-5.49,2.46-5.49,5.49,2.46,5.49,5.49,5.49,5.49-2.46,5.49-5.49ZM52.85,97.15c0-1.57-1.27-2.85-2.85-2.85s-2.85,1.27-2.85,2.85,1.27,2.85,2.85,2.85,2.85-1.27,2.85-2.85ZM75.68,67.63c-2.22-2.22-5.83-2.22-8.05,0-2.22,2.22-2.22,5.83,0,8.05s5.83,2.22,8.05,0c2.22-2.22,2.22-5.83,0-8.05ZM84.42,80.1c-1.19-1.19-3.13-1.19-4.32,0s-1.19,3.13,0,4.32,3.13,1.19,4.32,0,1.19-3.13,0-4.32ZM24.32,24.32c-2.22,2.22-2.22,5.83,0,8.05s5.83,2.22,8.05,0,2.22-5.83,0-8.05-5.83-2.22-8.05,0ZM75.34,24.66c-2.14-2.14-5.62-2.14-7.76,0-2.14,2.14-2.14,5.62,0,7.76s5.62,2.14,7.76,0c2.14-2.14,2.14-5.62,0-7.76ZM85.36,14.64c-1.11-1.11-2.91-1.11-4.03,0s-1.11,2.91,0,4.03,2.91,1.11,4.03,0c1.11-1.11,1.11-2.91,0-4.03ZM15.58,19.9c1.19,1.19,3.13,1.19,4.32,0s1.19-3.13,0-4.32c-1.19-1.19-3.13-1.19-4.32,0s-1.19,3.13,0,4.32ZM32.42,75.34c2.14-2.14,2.14-5.62,0-7.76-2.14-2.14-5.62-2.14-7.76,0-2.14,2.14-2.14,5.62,0,7.76,2.14,2.14,5.62,2.14,7.76,0ZM18.67,85.36c1.11-1.11,1.11-2.91,0-4.03s-2.91-1.11-4.03,0c-1.11,1.11-1.11,2.91,0,4.03s2.91,1.11,4.03,0Z" fill="#999"/></g></svg>