<?xml version="1.0" encoding="UTF-8"?><svg id="d" xmlns="http://www.w3.org/2000/svg" viewBox="0 0 100 100"><g id="e"><path d="M100,50.01l-10.51-1.26c2.54-7.85,3.43-9.9,3.46-9.96-.1.05-4.39,2.36-6.91,9.54l-2.39-.29c2.22-7.37,2.92-11.28,2.92-11.28,0,0-4.53,3.94-7.26,10.76l-1.98-.24c2.02-8.26,2.56-12.62,2.56-12.62,0,0-4.74,4.51-7.44,12.03l-2.52-.3c.37-1.46.7-2.81.98-4.05.06-.27.13-.54.18-.8,1.4-6.15,1.79-9.37,1.79-9.37,0,0-4.01,3.81-6.75,10.27-1,.2-2.13.44-3.38.72.35-1.41.66-2.72.93-3.91,3.88-2.3,6.1-4.6,6.17-4.67-.07,0-1.9.24-5.37.93.71-3.54.94-5.37.94-5.37,0,0-2.34,2.23-4.68,6.17-1.19.27-2.49.58-3.91.92.28-1.25.52-2.38.73-3.38,6.46-2.75,10.27-6.75,10.27-6.75,0,0-3.22.4-9.37,1.79-.26.06-.53.12-.8.18h0c-1.23.29-2.58.61-4.03.98l-.3-2.52c7.51-2.71,12.01-7.44,12.01-7.44,0,0-4.35.53-12.6,2.56l-.24-1.98c6.81-2.73,10.74-7.25,10.74-7.25,0,0-3.91.7-11.26,2.91l-.29-2.39c7.17-2.52,9.47-6.8,9.52-6.9-.06.03-2.11.91-9.94,3.45L50.01,0l-1.26,10.51c-7.85-2.54-9.9-3.43-9.96-3.46.05.1,2.36,4.39,9.54,6.91l-.29,2.39c-7.37-2.22-11.28-2.92-11.28-2.92,0,0,3.94,4.53,10.76,7.26l-.24,1.98c-8.26-2.02-12.62-2.56-12.62-2.56,0,0,4.51,4.74,12.03,7.44l-.3,2.52c-1.46-.37-2.81-.7-4.05-.98-.27-.06-.54-.13-.8-.18-6.15-1.4-9.37-1.79-9.37-1.79,0,0,3.81,4,10.27,6.75.2,1,.44,2.13.72,3.38-1.41-.35-2.72-.66-3.91-.93-2.33-3.94-4.68-6.17-4.68-6.17,0,0,.23,1.83.94,5.37-3.47-.7-5.3-.93-5.37-.93.07.07,2.29,2.38,6.17,4.67.27,1.19.57,2.49.92,3.91-1.25-.28-2.38-.52-3.37-.72-2.75-6.46-6.75-10.27-6.75-10.27,0,0,.4,3.22,1.79,9.37.06.26.12.53.18.8.29,1.23.61,2.58.98,4.03l-2.52.3c-2.71-7.51-7.44-12.01-7.44-12.01,0,0,.53,4.35,2.56,12.6l-1.98.24c-2.73-6.81-7.25-10.74-7.25-10.74,0,0,.7,3.91,2.91,11.26l-2.39.29c-2.52-7.17-6.8-9.47-6.9-9.52.03.06.92,2.11,3.45,9.94l-10.5,1.26,10.51,1.26c-2.54,7.85-3.43,9.9-3.46,9.96.1-.05,4.39-2.36,6.91-9.54l2.39.29c-2.22,7.37-2.92,11.28-2.92,11.28,0,0,4.53-3.94,7.26-10.76l1.98.24c-2.03,8.26-2.56,12.62-2.56,12.62,0,0,4.74-4.51,7.44-12.03l2.52.3c-.37,1.46-.7,2.81-.98,4.05-.06.27-.12.54-.18.8-1.4,6.15-1.79,9.37-1.79,9.37,0,0,4-3.81,6.75-10.27,1-.2,2.12-.44,3.38-.72-.35,1.41-.66,2.72-.92,3.91-3.94,2.33-6.17,4.68-6.17,4.68,0,0,1.83-.23,5.37-.94-.7,3.47-.93,5.3-.93,5.37.07-.07,2.38-2.29,4.67-6.17,1.19-.27,2.5-.57,3.91-.92-.28,1.25-.52,2.38-.73,3.38-6.46,2.75-10.27,6.75-10.27,6.75,0,0,3.22-.4,9.37-1.79.26-.06.53-.12.8-.18h0c1.24-.29,2.58-.61,4.03-.98l.3,2.52c-7.51,2.71-12.01,7.44-12.01,7.44,0,0,4.35-.53,12.6-2.56l.24,1.98c-6.81,2.73-10.74,7.25-10.74,7.25,0,0,3.91-.7,11.26-2.91l.29,2.39c-7.17,2.52-9.47,6.8-9.52,6.9.06-.03,2.11-.92,9.94-3.45l1.26,10.5,1.26-10.51c7.85,2.54,9.9,3.43,9.96,3.46-.05-.1-2.36-4.39-9.55-6.91l.29-2.39c7.37,2.22,11.28,2.92,11.28,2.92,0,0-3.94-4.53-10.76-7.26l.24-1.98c8.26,2.02,12.62,2.56,12.62,2.56,0,0-4.51-4.74-12.03-7.44l.3-2.52c1.46.37,2.81.7,4.05.98h0s.79.18.79.18c6.15,1.4,9.37,1.79,9.37,1.79,0,0-3.81-4.01-10.27-6.75-.2-1-.44-2.12-.72-3.38,1.41.35,2.72.66,3.91.92,2.29,3.88,4.6,6.1,4.67,6.17,0-.07-.24-1.9-.93-5.37,3.54.71,5.37.94,5.37.94,0,0-2.23-2.34-6.17-4.68-.27-1.19-.58-2.5-.92-3.91,1.25.28,2.38.52,3.38.73,2.75,6.46,6.75,10.27,6.75,10.27,0,0-.4-3.22-1.79-9.37-.06-.26-.12-.53-.18-.8-.29-1.24-.61-2.58-.98-4.03l2.52-.3c2.71,7.51,7.44,12.01,7.44,12.01,0,0-.53-4.35-2.55-12.6l1.98-.24c2.73,6.81,7.25,10.74,7.25,10.74,0,0-.7-3.91-2.91-11.26l2.39-.29c2.52,7.17,6.8,9.47,6.9,9.52-.03-.06-.92-2.11-3.45-9.94l10.5-1.26Z" fill="#999"/></g></svg>