<svg id="icon-inhaler" xmlns="http://www.w3.org/2000/svg" viewBox="0 0 550 542.3">
    <path d="M424.2,407.1c0-3.5-.6-6.9-2-10.1-4.1-9.9-13.2-15.8-24.4-15.9-19.9,0-39.9,0-59.8,0h-2.2c0-2.2,0-4.2,0-6.2,0-1.2,0-2.4-.2-3.6-1.4-8.6-8.5-14.4-17.7-14.4-22,0-44,0-65.9,0-4.7,0-7.7-2.4-8.8-6.9-6.1-24.9-12.1-49.8-18.2-74.6-8.1-33.4-16.2-66.9-24.4-100.3-1.9-7.7-6.5-13.4-13.6-16.9-2.1-1-4.4-1.7-6.7-2.4-1.2-.4-1.9-.9-2.2-2.3-11.2-44.6-22.5-89.1-33.8-133.7-3.6-14.1-17.3-22.4-31.4-18.9-30.4,7.6-60.8,15.3-91.1,23C7.6,27.4-.4,41.1,3.1,55.3c2.3,9.2,4.6,18.4,7,27.5,2.1,8.4,4.2,16.8,6.4,25.3-.5.2-.8.4-1.2.6-11.8,5.3-17.5,17.1-14.5,29.7,3.2,13.3,6.5,26.6,9.7,40,12.9,53.2,25.9,106.3,38.8,159.5,10.7,44.1,21.5,88.3,32.2,132.4,3.9,16.2,11.2,30.6,22.7,42.7,18.7,19.6,41.7,29.3,68.8,29.3,36.9,0,73.8,0,110.7,0s23.2,0,34.9,0c9.6,0,16.9-7.4,17.1-17,0-2.2,0-4.4,0-6.6v-2.3h2.1c20,0,40.1,0,60.1,0,14.8,0,26.1-11.3,26.1-26.1,0-27.7,0-55.4,0-83.1h0ZM26.6,40.4c29.9-7.5,59.8-15.1,89.7-22.7,5.8-1.5,10,1,11.5,6.8,10.4,40.9,20.7,81.8,31.1,122.6,0,.4.1.8.3,1.5-3.9-1.3-7.6-2.5-11.2-3.6-37.4-12.2-74.8-24.5-112.2-36.7-1.1-.4-1.7-.9-2-2.1-4.6-18.2-9.2-36.4-13.8-54.6-1.4-5.6,1.1-9.8,6.7-11.2ZM318.6,524.9c-.6,0-1.1,0-1.7,0-48.4,0-96.9,0-145.3,0-34.6,0-64.6-23.7-72.8-57.4-9.9-40.6-19.8-81.2-29.7-121.8h0l-33.8-138.7h0c0-.1,0-.2,0-.2h0s0,0,0,0c0,0,0-.2,0-.3-.5-2.2-1.1-4.4-1.6-6.6-.1-.4-.2-.9-.3-1.3-1.2-5-2.4-10-3.6-15.1-4-16.4-8-32.8-12-49.2-.8-3.3-.1-6.1,2.4-8.5,2.5-2.3,5.4-2.8,8.7-1.7,44.5,14.6,89.1,29.1,133.6,43.7,5.1,1.7,10.2,3.4,15.4,5,3.5,1.1,5.6,3.4,6.5,7,.5,2.2,1.1,4.5,1.6,6.7l3.3,13.4c.6,2.2,1.1,4.5,1.6,6.7,0,.1,0,.2,0,.4v.2s.1.4.1.4l22.7,93.2h0c.1.3.2.5.3.9,2.1,8.7,4.2,17.4,6.3,26l3,12.3c1.1,4.6,2.2,9.1,3.3,13.7,3,12.5,12.9,20.4,25.8,20.4,21.4,0,42.8,0,64.1,0h2.2v150.9h0ZM407,489.7c0,5.9-3.4,9.4-9.3,9.4-20,0-40,0-60,0s-1.1,0-1.7-.1v-100.5c.6,0,1.2,0,1.8,0h59.8c6,0,9.4,3.4,9.4,9.4v82h0ZM475.4,457.3c-8.5,0-17.1,0-25.6,0-5.2,0-8.9-3.5-9-8.4-.1-4.8,3.6-8.8,8.4-8.8,17.5,0,34.9,0,52.4,0,4.7,0,8.4,3.7,8.5,8.4.1,4.6-3.4,8.5-8.1,8.8-.2,0-.4,0-.7,0h-25.9ZM516.5,480.6c8.3,0,16.5,0,24.8,0,3.7,0,6.4,1.7,7.9,5.1s1,6.5-1.4,9.2c-1.7,2-3.9,2.9-6.4,2.9-16.5,0-32.9,0-49.4,0-5,0-8.8-3.8-8.7-8.7,0-4.8,3.8-8.5,8.9-8.5,8.1,0,16.3,0,24.5,0h0ZM522.2,416.8c-6.3,0-12.7,0-19,0-4,0-7.3-2.6-8.3-6.3-1-3.7.4-7.7,3.8-9.5,1.3-.8,3-1.3,4.5-1.3,12.7-.1,25.4,0,38.1,0,4.9,0,8.6,3.8,8.6,8.6s-3.7,8.5-8.6,8.6c-6.4,0-12.8,0-19.2,0h0ZM459.5,416.8c-3.3,0-6.6,0-9.9,0-5.1,0-8.9-3.8-8.8-8.7,0-4.9,3.8-8.5,8.9-8.5,6.7,0,13.4,0,20.1,0,5,0,8.8,3.8,8.8,8.6,0,4.8-3.8,8.5-8.8,8.6-3.4,0-6.8,0-10.2,0h0ZM536.3,457.3c-1.9,0-3.8.1-5.6,0-4.6-.3-8.1-4.2-8-8.7.1-4.6,3.7-8.3,8.3-8.4,3.5,0,7,0,10.6,0,4.6.1,8.3,3.9,8.4,8.5,0,4.5-3.5,8.3-8.1,8.6-1.9.1-3.7,0-5.6,0h0ZM453.3,497.9c-1.8,0-3.6,0-5.4-.3-4.4-.7-7.3-4.5-7-9,.2-4.3,3.7-7.8,8-8,2.8-.1,5.6-.1,8.4,0,4.9.1,8.5,3.8,8.5,8.5,0,4.8-3.6,8.5-8.5,8.7-1.3,0-2.6,0-4,0h0c0,0,0,0,0,0Z"/>
</svg>