<svg id="icon-pill" xmlns="http://www.w3.org/2000/svg" version="1.1" viewBox="0 0 550 550">
      <path d="M0,381.6c1.1-7,1.9-14,3.3-21,6.4-30.9,21.1-57.4,43.3-79.6C125.1,202.4,203.6,123.9,282.2,45.5c23.7-23.7,52.3-38.1,85.5-43.4,4.8-.8,9.7-1.4,14.6-2.1h21.3c.9.2,1.7.4,2.6.6,8.8,1.5,17.7,2.3,26.3,4.5,26.7,6.8,49.9,20.1,69.7,39.3,24.1,23.5,39.3,51.7,45.2,84.8,1.1,6.2,1.8,12.4,2.6,18.6v19.2c-.8,6-1.5,12-2.5,17.9-5.8,32.7-20.8,60.6-44.1,84-78,78.1-156.2,156.2-234.3,234.3-20.2,20.2-43.9,34.4-71.6,41.4-8.7,2.2-17.8,3.1-26.7,4.7-1,.2-2,.4-3,.6h-21.3c-2-.3-4-.5-6.1-.8-32.7-3.9-61.7-16.2-86.5-38-27.4-24.1-44.7-54.1-51.2-90-1.1-6.1-1.8-12.2-2.7-18.3v-21.3ZM378.7,362.7c.3-.3.7-.6,1-.9,36.1-36.1,72.5-72,108.3-108.4,31.8-32.4,44.8-71.5,38.4-116.5-4.5-31.5-18.9-58.2-42.5-79.5-34.1-30.7-74.1-41.1-118.9-32.5-26.9,5.2-49.8,18.3-69.1,37.8-35.4,35.6-70.9,71-106.4,106.5-.8.8-1.5,1.6-2.2,2.4,63.9,63.8,127.6,127.4,191.4,191.2h0ZM171.3,187.4c-.3.3-.6.6-1,.9-36.9,36.9-74.2,73.3-110.4,110.7-32.3,33.4-44,74-35.4,119.6,10.4,55.8,54.2,98.4,109.9,107.5,44.2,7.3,83.5-4.2,115.8-35.2,37.9-36.5,74.6-74.2,111.8-111.3.3-.3.5-.7.8-1-63.8-63.7-127.5-127.3-191.4-191.1h0Z"/>
</svg>